<?xml version="1.0" encoding="UTF-8" standalone="no"?>
<!DOCTYPE svg PUBLIC "-//W3C//DTD SVG 1.1//EN"
 "http://www.w3.org/Graphics/SVG/1.1/DTD/svg11.dtd">
<!-- Generated by graphviz version 12.2.1 (20241206.2353)
 -->
<!-- Pages: 1 -->
<svg width="405pt" height="409pt"
 viewBox="0.00 0.00 405.00 409.00" xmlns="http://www.w3.org/2000/svg" xmlns:xlink="http://www.w3.org/1999/xlink">
<g id="graph0" class="graph" transform="scale(1 1) rotate(0) translate(4 405)">
<polygon fill="white" stroke="none" points="-4,4 -4,-405 401,-405 401,4 -4,4"/>
<text text-anchor="middle" x="198.5" y="-7.2" font-family="Times,serif" font-size="14.00">Recursive factorial — branching and self&#45;call. arity:1 regs:12 locals:1</text>
<!-- block0 -->
<g id="node1" class="node">
<title>block0</title>
<polygon fill="none" stroke="#cc8800" points="94.5,-312.75 94.5,-400.5 272.5,-400.5 272.5,-312.75 94.5,-312.75"/>
<text text-anchor="middle" x="183.5" y="-387" font-family="monospace" font-size="10.00">block0</text>
<polyline fill="none" stroke="#cc8800" points="94.5,-379.75 272.5,-379.75"/>
<text text-anchor="start" x="102.5" y="-366.25" font-family="monospace" font-size="10.00">r0 ← cap[0] @17:10</text>
<text text-anchor="start" x="102.5" y="-353.5" font-family="monospace" font-size="10.00">r1 ← 2 @17:12</text>
<text text-anchor="start" x="102.5" y="-340.75" font-family="monospace" font-size="10.00">r2 ← r0 &lt; r1 @17:12</text>
<polyline fill="none" stroke="#cc8800" points="94.5,-333.5 272.5,-333.5"/>
<text text-anchor="middle" x="183.5" y="-320" font-family="monospace" font-size="10.00">branch r2 → block1 / block2</text>
</g>
<!-- block1 -->
<g id="node2" class="node">
<title>block1</title>
<polygon fill="none" stroke="#444444" points="65.5,-162.5 65.5,-237.5 159.5,-237.5 159.5,-162.5 65.5,-162.5"/>
<text text-anchor="middle" x="112.5" y="-224" font-family="monospace" font-size="10.00">block1</text>
<polyline fill="none" stroke="#444444" points="65.5,-216.75 159.5,-216.75"/>
<text text-anchor="start" x="73.5" y="-203.25" font-family="monospace" font-size="10.00">r4 ← 1 @18:5</text>
<text text-anchor="start" x="73.5" y="-190.5" font-family="monospace" font-size="10.00">r3 ← r4 @18:5</text>
<polyline fill="none" stroke="#444444" points="65.5,-183.25 159.5,-183.25"/>
<text text-anchor="middle" x="112.5" y="-169.75" font-family="monospace" font-size="10.00">jump → block3</text>
</g>
<!-- block0&#45;&gt;block1 -->
<g id="edge1" class="edge">
<title>block0&#45;&gt;block1</title>
<path fill="none" stroke="black" d="M163.72,-312.55C154.53,-292.54 143.58,-268.69 134.17,-248.19"/>
<polygon fill="black" stroke="black" points="137.39,-246.82 130.04,-239.19 131.03,-249.74 137.39,-246.82"/>
</g>
<!-- block2 -->
<g id="node3" class="node">
<title>block2</title>
<polygon fill="none" stroke="#444444" points="177.5,-124.25 177.5,-275.75 331.5,-275.75 331.5,-124.25 177.5,-124.25"/>
<text text-anchor="middle" x="254.5" y="-262.25" font-family="monospace" font-size="10.00">block2</text>
<polyline fill="none" stroke="#444444" points="177.5,-255 331.5,-255"/>
<text text-anchor="start" x="185.5" y="-241.5" font-family="monospace" font-size="10.00">r5 ← cap[0] @19:8</text>
<text text-anchor="start" x="185.5" y="-228.75" font-family="monospace" font-size="10.00">r6 ← cap[0] @19:24</text>
<text text-anchor="start" x="185.5" y="-216" font-family="monospace" font-size="10.00">r7 ← 1 @19:26</text>
<text text-anchor="start" x="185.5" y="-203.25" font-family="monospace" font-size="10.00">r8 ← r6 &#45; r7 @19:26</text>
<text text-anchor="start" x="185.5" y="-190.5" font-family="monospace" font-size="10.00">r9 ← global(459) @19:11</text>
<text text-anchor="start" x="185.5" y="-177.75" font-family="monospace" font-size="10.00">r10 ← r9(r8) @19:11</text>
<text text-anchor="start" x="185.5" y="-165" font-family="monospace" font-size="10.00">r11 ← r5 * r10 @19:11</text>
<text text-anchor="start" x="185.5" y="-152.25" font-family="monospace" font-size="10.00">r3 ← r11 @19:11</text>
<polyline fill="none" stroke="#444444" points="177.5,-145 331.5,-145"/>
<text text-anchor="middle" x="254.5" y="-131.5" font-family="monospace" font-size="10.00">jump → block3</text>
</g>
<!-- block0&#45;&gt;block2 -->
<g id="edge2" class="edge">
<title>block0&#45;&gt;block2</title>
<path fill="none" stroke="black" d="M203.28,-312.55C207.06,-304.31 211.15,-295.41 215.3,-286.37"/>
<polygon fill="black" stroke="black" points="218.38,-288.04 219.38,-277.49 212.02,-285.12 218.38,-288.04"/>
</g>
<!-- block3 -->
<g id="node4" class="node">
<title>block3</title>
<polygon fill="none" stroke="#4444cc" points="148.5,-25 148.5,-87.25 218.5,-87.25 218.5,-25 148.5,-25"/>
<text text-anchor="middle" x="183.5" y="-73.75" font-family="monospace" font-size="10.00">block3</text>
<polyline fill="none" stroke="#4444cc" points="148.5,-66.5 218.5,-66.5"/>
<text text-anchor="middle" x="183.5" y="-53" font-family="monospace" font-size="10.00"> </text>
<polyline fill="none" stroke="#4444cc" points="148.5,-45.75 218.5,-45.75"/>
<text text-anchor="middle" x="183.5" y="-32.25" font-family="monospace" font-size="10.00">return r3</text>
</g>
<!-- block1&#45;&gt;block3 -->
<g id="edge3" class="edge">
<title>block1&#45;&gt;block3</title>
<path fill="none" stroke="black" d="M130.97,-162.09C140.84,-142.38 153,-118.06 163.14,-97.8"/>
<polygon fill="black" stroke="black" points="166.21,-99.49 167.56,-88.98 159.95,-96.35 166.21,-99.49"/>
</g>
<!-- block2&#45;&gt;block3 -->
<g id="edge4" class="edge">
<title>block2&#45;&gt;block3</title>
<path fill="none" stroke="black" d="M216.92,-123.91C212.38,-114.84 207.89,-105.87 203.74,-97.58"/>
<polygon fill="black" stroke="black" points="206.98,-96.22 199.37,-88.84 200.72,-99.35 206.98,-96.22"/>
</g>
</g>
</svg>
