<?xml version="1.0" encoding="UTF-8" standalone="no"?>
<!DOCTYPE svg PUBLIC "-//W3C//DTD SVG 1.1//EN"
 "http://www.w3.org/Graphics/SVG/1.1/DTD/svg11.dtd">
<!-- Generated by graphviz version 12.2.1 (20241206.2353)
 -->
<!-- Pages: 1 -->
<svg width="513pt" height="809pt"
 viewBox="0.00 0.00 513.00 808.75" xmlns="http://www.w3.org/2000/svg" xmlns:xlink="http://www.w3.org/1999/xlink">
<g id="graph0" class="graph" transform="scale(1 1) rotate(0) translate(4 804.75)">
<polygon fill="white" stroke="none" points="-4,4 -4,-804.75 509,-804.75 509,4 -4,4"/>
<text text-anchor="middle" x="252.5" y="-7.2" font-family="Times,serif" font-size="14.00">Classic fizzbuzz — nested branching. arity:1 regs:25 locals:1</text>
<!-- block0 -->
<g id="node1" class="node">
<title>block0</title>
<polygon fill="none" stroke="#cc8800" points="77,-674.25 77,-800.25 255,-800.25 255,-674.25 77,-674.25"/>
<text text-anchor="middle" x="166" y="-786.75" font-family="monospace" font-size="10.00">block0</text>
<polyline fill="none" stroke="#cc8800" points="77,-779.5 255,-779.5"/>
<text text-anchor="start" x="85" y="-766" font-family="monospace" font-size="10.00">r1 ← cap[0] @24:14</text>
<text text-anchor="start" x="85" y="-753.25" font-family="monospace" font-size="10.00">r2 ← 15 @24:16</text>
<text text-anchor="start" x="85" y="-740.5" font-family="monospace" font-size="10.00">r3 ← global(4) @24:10</text>
<text text-anchor="start" x="85" y="-727.75" font-family="monospace" font-size="10.00">r4 ← r3(r1, r2) @24:10</text>
<text text-anchor="start" x="85" y="-715" font-family="monospace" font-size="10.00">r5 ← 0 @24:20</text>
<text text-anchor="start" x="85" y="-702.25" font-family="monospace" font-size="10.00">r6 ← r4 = r5 @24:20</text>
<polyline fill="none" stroke="#cc8800" points="77,-695 255,-695"/>
<text text-anchor="middle" x="166" y="-681.5" font-family="monospace" font-size="10.00">branch r6 → block2 / block5</text>
</g>
<!-- block2 -->
<g id="node2" class="node">
<title>block2</title>
<polygon fill="none" stroke="#444444" points="0,-536.75 0,-611.75 148,-611.75 148,-536.75 0,-536.75"/>
<text text-anchor="middle" x="74" y="-598.25" font-family="monospace" font-size="10.00">block2</text>
<polyline fill="none" stroke="#444444" points="0,-591 148,-591"/>
<text text-anchor="start" x="8" y="-577.5" font-family="monospace" font-size="10.00">r7 ← &quot;fizzbuzz&quot; @24:23</text>
<text text-anchor="start" x="8" y="-564.75" font-family="monospace" font-size="10.00">r0 ← r7 @24:23</text>
<polyline fill="none" stroke="#444444" points="0,-557.5 148,-557.5"/>
<text text-anchor="middle" x="74" y="-544" font-family="monospace" font-size="10.00">jump → block1</text>
</g>
<!-- block0&#45;&gt;block2 -->
<g id="edge1" class="edge">
<title>block0&#45;&gt;block2</title>
<path fill="none" stroke="black" d="M130.43,-674C120.55,-656.71 109.99,-638.23 100.71,-621.99"/>
<polygon fill="black" stroke="black" points="103.86,-620.46 95.86,-613.51 97.79,-623.93 103.86,-620.46"/>
</g>
<!-- block5 -->
<g id="node3" class="node">
<title>block5</title>
<polygon fill="none" stroke="#cc8800" points="166,-511.25 166,-637.25 350,-637.25 350,-511.25 166,-511.25"/>
<text text-anchor="middle" x="258" y="-623.75" font-family="monospace" font-size="10.00">block5</text>
<polyline fill="none" stroke="#cc8800" points="166,-616.5 350,-616.5"/>
<text text-anchor="start" x="174" y="-603" font-family="monospace" font-size="10.00">r8 ← cap[0] @25:14</text>
<text text-anchor="start" x="174" y="-590.25" font-family="monospace" font-size="10.00">r9 ← 3 @25:16</text>
<text text-anchor="start" x="174" y="-577.5" font-family="monospace" font-size="10.00">r10 ← global(4) @25:10</text>
<text text-anchor="start" x="174" y="-564.75" font-family="monospace" font-size="10.00">r11 ← r10(r8, r9) @25:10</text>
<text text-anchor="start" x="174" y="-552" font-family="monospace" font-size="10.00">r12 ← 0 @25:19</text>
<text text-anchor="start" x="174" y="-539.25" font-family="monospace" font-size="10.00">r13 ← r11 = r12 @25:19</text>
<polyline fill="none" stroke="#cc8800" points="166,-532 350,-532"/>
<text text-anchor="middle" x="258" y="-518.5" font-family="monospace" font-size="10.00">branch r13 → block4 / block7</text>
</g>
<!-- block0&#45;&gt;block5 -->
<g id="edge2" class="edge">
<title>block0&#45;&gt;block5</title>
<path fill="none" stroke="black" d="M201.57,-674C206.53,-665.32 211.66,-656.35 216.71,-647.5"/>
<polygon fill="black" stroke="black" points="219.7,-649.33 221.62,-638.91 213.62,-645.86 219.7,-649.33"/>
</g>
<!-- block1 -->
<g id="node4" class="node">
<title>block1</title>
<polygon fill="none" stroke="#4444cc" points="143,-25 143,-87.25 213,-87.25 213,-25 143,-25"/>
<text text-anchor="middle" x="178" y="-73.75" font-family="monospace" font-size="10.00">block1</text>
<polyline fill="none" stroke="#4444cc" points="143,-66.5 213,-66.5"/>
<text text-anchor="middle" x="178" y="-53" font-family="monospace" font-size="10.00"> </text>
<polyline fill="none" stroke="#4444cc" points="143,-45.75 213,-45.75"/>
<text text-anchor="middle" x="178" y="-32.25" font-family="monospace" font-size="10.00">return r0</text>
</g>
<!-- block2&#45;&gt;block1 -->
<g id="edge3" class="edge">
<title>block2&#45;&gt;block1</title>
<path fill="none" stroke="black" d="M74.9,-536.64C76.51,-491.79 80.93,-413.64 93,-347.75 111.66,-245.91 127.21,-222.91 157,-123.75 159.47,-115.51 162.19,-106.73 164.82,-98.33"/>
<polygon fill="black" stroke="black" points="168.08,-99.62 167.75,-89.03 161.41,-97.51 168.08,-99.62"/>
</g>
<!-- block4 -->
<g id="node5" class="node">
<title>block4</title>
<polygon fill="none" stroke="#444444" points="102,-373.75 102,-448.75 232,-448.75 232,-373.75 102,-373.75"/>
<text text-anchor="middle" x="167" y="-435.25" font-family="monospace" font-size="10.00">block4</text>
<polyline fill="none" stroke="#444444" points="102,-428 232,-428"/>
<text text-anchor="start" x="110" y="-414.5" font-family="monospace" font-size="10.00">r14 ← &quot;fizz&quot; @25:23</text>
<text text-anchor="start" x="110" y="-401.75" font-family="monospace" font-size="10.00">r0 ← r14 @25:23</text>
<polyline fill="none" stroke="#444444" points="102,-394.5 232,-394.5"/>
<text text-anchor="middle" x="167" y="-381" font-family="monospace" font-size="10.00">jump → block1</text>
</g>
<!-- block5&#45;&gt;block4 -->
<g id="edge4" class="edge">
<title>block5&#45;&gt;block4</title>
<path fill="none" stroke="black" d="M222.82,-511C213.04,-493.71 202.6,-475.23 193.42,-458.99"/>
<polygon fill="black" stroke="black" points="196.59,-457.5 188.63,-450.51 190.5,-460.94 196.59,-457.5"/>
</g>
<!-- block7 -->
<g id="node6" class="node">
<title>block7</title>
<polygon fill="none" stroke="#cc8800" points="250,-348.25 250,-474.25 434,-474.25 434,-348.25 250,-348.25"/>
<text text-anchor="middle" x="342" y="-460.75" font-family="monospace" font-size="10.00">block7</text>
<polyline fill="none" stroke="#cc8800" points="250,-453.5 434,-453.5"/>
<text text-anchor="start" x="258" y="-440" font-family="monospace" font-size="10.00">r15 ← cap[0] @26:14</text>
<text text-anchor="start" x="258" y="-427.25" font-family="monospace" font-size="10.00">r16 ← 5 @26:16</text>
<text text-anchor="start" x="258" y="-414.5" font-family="monospace" font-size="10.00">r17 ← global(4) @26:10</text>
<text text-anchor="start" x="258" y="-401.75" font-family="monospace" font-size="10.00">r18 ← r17(r15, r16) @26:10</text>
<text text-anchor="start" x="258" y="-389" font-family="monospace" font-size="10.00">r19 ← 0 @26:19</text>
<text text-anchor="start" x="258" y="-376.25" font-family="monospace" font-size="10.00">r20 ← r18 = r19 @26:19</text>
<polyline fill="none" stroke="#cc8800" points="250,-369 434,-369"/>
<text text-anchor="middle" x="342" y="-355.5" font-family="monospace" font-size="10.00">branch r20 → block6 / block9</text>
</g>
<!-- block5&#45;&gt;block7 -->
<g id="edge5" class="edge">
<title>block5&#45;&gt;block7</title>
<path fill="none" stroke="black" d="M290.48,-511C294.96,-502.42 299.59,-493.54 304.15,-484.79"/>
<polygon fill="black" stroke="black" points="307.25,-486.42 308.77,-475.94 301.04,-483.19 307.25,-486.42"/>
</g>
<!-- block4&#45;&gt;block1 -->
<g id="edge6" class="edge">
<title>block4&#45;&gt;block1</title>
<path fill="none" stroke="black" d="M162.83,-373.35C160.94,-354.88 158.93,-332.16 158,-311.75 156.46,-278.01 156.12,-269.48 158,-235.75 160.63,-188.66 167.12,-134.91 172.01,-98.78"/>
<polygon fill="black" stroke="black" points="175.43,-99.58 173.32,-89.2 168.49,-98.63 175.43,-99.58"/>
</g>
<!-- block6 -->
<g id="node7" class="node">
<title>block6</title>
<polygon fill="none" stroke="#444444" points="167,-236.25 167,-311.25 297,-311.25 297,-236.25 167,-236.25"/>
<text text-anchor="middle" x="232" y="-297.75" font-family="monospace" font-size="10.00">block6</text>
<polyline fill="none" stroke="#444444" points="167,-290.5 297,-290.5"/>
<text text-anchor="start" x="175" y="-277" font-family="monospace" font-size="10.00">r21 ← &quot;buzz&quot; @26:23</text>
<text text-anchor="start" x="175" y="-264.25" font-family="monospace" font-size="10.00">r0 ← r21 @26:23</text>
<polyline fill="none" stroke="#444444" points="167,-257 297,-257"/>
<text text-anchor="middle" x="232" y="-243.5" font-family="monospace" font-size="10.00">jump → block1</text>
</g>
<!-- block7&#45;&gt;block6 -->
<g id="edge7" class="edge">
<title>block7&#45;&gt;block6</title>
<path fill="none" stroke="black" d="M291.51,-348.05C283.88,-338.66 276.14,-329.12 268.88,-320.17"/>
<polygon fill="black" stroke="black" points="271.76,-318.18 262.74,-312.62 266.33,-322.59 271.76,-318.18"/>
</g>
<!-- block9 -->
<g id="node8" class="node">
<title>block9</title>
<polygon fill="none" stroke="#cc8800" points="315,-242.62 315,-304.88 505,-304.88 505,-242.62 315,-242.62"/>
<text text-anchor="middle" x="410" y="-291.38" font-family="monospace" font-size="10.00">block9</text>
<polyline fill="none" stroke="#cc8800" points="315,-284.12 505,-284.12"/>
<text text-anchor="start" x="323" y="-270.62" font-family="monospace" font-size="10.00">r22 ← true @27:6</text>
<polyline fill="none" stroke="#cc8800" points="315,-263.38 505,-263.38"/>
<text text-anchor="middle" x="410" y="-249.88" font-family="monospace" font-size="10.00">branch r22 → block8 / block10</text>
</g>
<!-- block7&#45;&gt;block9 -->
<g id="edge8" class="edge">
<title>block7&#45;&gt;block9</title>
<path fill="none" stroke="black" d="M373.21,-348.05C378.76,-337 384.4,-325.75 389.55,-315.49"/>
<polygon fill="black" stroke="black" points="392.68,-317.07 394.04,-306.56 386.42,-313.93 392.68,-317.07"/>
</g>
<!-- block6&#45;&gt;block1 -->
<g id="edge9" class="edge">
<title>block6&#45;&gt;block1</title>
<path fill="none" stroke="black" d="M211.49,-235.76C206.01,-224.49 200.61,-211.87 197,-199.75 187.12,-166.61 182.37,-127.61 180.09,-98.77"/>
<polygon fill="black" stroke="black" points="183.59,-98.71 179.39,-88.99 176.61,-99.21 183.59,-98.71"/>
</g>
<!-- block8 -->
<g id="node9" class="node">
<title>block8</title>
<polygon fill="none" stroke="#444444" points="206,-124.25 206,-199.25 336,-199.25 336,-124.25 206,-124.25"/>
<text text-anchor="middle" x="271" y="-185.75" font-family="monospace" font-size="10.00">block8</text>
<polyline fill="none" stroke="#444444" points="206,-178.5 336,-178.5"/>
<text text-anchor="start" x="214" y="-165" font-family="monospace" font-size="10.00">r23 ← cap[0] @27:24</text>
<text text-anchor="start" x="214" y="-152.25" font-family="monospace" font-size="10.00">r0 ← r23 @27:24</text>
<polyline fill="none" stroke="#444444" points="206,-145 336,-145"/>
<text text-anchor="middle" x="271" y="-131.5" font-family="monospace" font-size="10.00">jump → block1</text>
</g>
<!-- block9&#45;&gt;block8 -->
<g id="edge10" class="edge">
<title>block9&#45;&gt;block8</title>
<path fill="none" stroke="black" d="M371.65,-242.4C357.68,-231.34 341.59,-218.61 326.43,-206.62"/>
<polygon fill="black" stroke="black" points="328.84,-204.06 318.82,-200.59 324.49,-209.55 328.84,-204.06"/>
</g>
<!-- block10 -->
<g id="node10" class="node">
<title>block10</title>
<polygon fill="none" stroke="#444444" points="354,-124.25 354,-199.25 466,-199.25 466,-124.25 354,-124.25"/>
<text text-anchor="middle" x="410" y="-185.75" font-family="monospace" font-size="10.00">block10</text>
<polyline fill="none" stroke="#444444" points="354,-178.5 466,-178.5"/>
<text text-anchor="start" x="362" y="-165" font-family="monospace" font-size="10.00">r24 ← nil @27:24</text>
<text text-anchor="start" x="362" y="-152.25" font-family="monospace" font-size="10.00">r0 ← r24 @27:24</text>
<polyline fill="none" stroke="#444444" points="354,-145 466,-145"/>
<text text-anchor="middle" x="410" y="-131.5" font-family="monospace" font-size="10.00">jump → block1</text>
</g>
<!-- block9&#45;&gt;block10 -->
<g id="edge11" class="edge">
<title>block9&#45;&gt;block10</title>
<path fill="none" stroke="black" d="M410,-242.4C410,-232.69 410,-221.68 410,-211.02"/>
<polygon fill="black" stroke="black" points="413.5,-211.17 410,-201.17 406.5,-211.17 413.5,-211.17"/>
</g>
<!-- block8&#45;&gt;block1 -->
<g id="edge12" class="edge">
<title>block8&#45;&gt;block1</title>
<path fill="none" stroke="black" d="M237.95,-123.92C229.88,-114.93 221.22,-105.28 213.05,-96.18"/>
<polygon fill="black" stroke="black" points="215.71,-93.91 206.43,-88.8 210.51,-98.58 215.71,-93.91"/>
</g>
<!-- block10&#45;&gt;block1 -->
<g id="edge13" class="edge">
<title>block10&#45;&gt;block1</title>
<path fill="none" stroke="black" d="M353.53,-127.99C350.66,-126.52 347.81,-125.1 345,-123.75 305.03,-104.51 257.97,-86.1 224.01,-73.53"/>
<polygon fill="black" stroke="black" points="225.48,-70.34 214.89,-70.18 223.07,-76.91 225.48,-70.34"/>
</g>
</g>
</svg>
