<?xml version="1.0" encoding="UTF-8" standalone="no"?>
<!DOCTYPE svg PUBLIC "-//W3C//DTD SVG 1.1//EN"
 "http://www.w3.org/Graphics/SVG/1.1/DTD/svg11.dtd">
<!-- Generated by graphviz version 12.2.1 (20241206.2353)
 -->
<!-- Title: fiber_swap Pages: 1 -->
<svg width="759pt" height="1377pt"
 viewBox="0.00 0.00 759.00 1376.50" xmlns="http://www.w3.org/2000/svg" xmlns:xlink="http://www.w3.org/1999/xlink">
<g id="graph0" class="graph" transform="scale(1 1) rotate(0) translate(4 1372.5)">
<title>fiber_swap</title>
<g id="clust1" class="cluster">
<title>cluster_swap_in</title>
<polygon fill="none" stroke="#88bb88" stroke-dasharray="5,2" points="8,-721 8,-1128.5 743,-1128.5 743,-721 8,-721"/>
<text text-anchor="start" x="16" y="-1116.95" font-family="Helvetica,sans-Serif" font-size="9.00" fill="#336633">swap in (steps 3 / 3a / 3b)</text>
<text text-anchor="start" x="22.38" y="-1107.95" font-family="Helvetica,sans-Serif" font-size="9.00" fill="#336633"> &#160;&#160;&#160;&#160;&#160;&#160;&#160;&#160;&#160;&#160;&#160;&#160;&#160;&#160;</text>
<text text-anchor="start" x="56.12" y="-1107.95" font-family="Helvetica,sans-Serif" font-size="8.00" fill="#336633">vm.fiber → child</text>
</g>
<g id="clust2" class="cluster">
<title>cluster_swap_out</title>
<polygon fill="none" stroke="#bb8888" stroke-dasharray="5,2" points="243,-69 243,-334.5 519,-334.5 519,-69 243,-69"/>
<text text-anchor="start" x="251" y="-322.95" font-family="Helvetica,sans-Serif" font-size="9.00" fill="#663333">swap out (steps 7a / 7 / 8)</text>
<text text-anchor="start" x="253.62" y="-313.95" font-family="Helvetica,sans-Serif" font-size="9.00" fill="#663333"> &#160;&#160;&#160;&#160;&#160;&#160;&#160;&#160;&#160;&#160;&#160;&#160;&#160;&#160;</text>
<text text-anchor="start" x="287.38" y="-313.95" font-family="Helvetica,sans-Serif" font-size="8.00" fill="#663333">vm.fiber → parent</text>
</g>
<!-- entry -->
<g id="node1" class="node">
<title>entry</title>
<polygon fill="#e8f0fe" stroke="#333333" stroke-width="1.2" points="494,-1368.5 262,-1368.5 262,-1332.5 500,-1332.5 500,-1362.5 494,-1368.5"/>
<polyline fill="none" stroke="#333333" stroke-width="1.2" points="494,-1368.5 494,-1362.5"/>
<polyline fill="none" stroke="#333333" stroke-width="1.2" points="500,-1362.5 494,-1362.5"/>
<text text-anchor="start" x="324.75" y="-1352.05" font-family="Helvetica,sans-Serif" font-size="11.00">with_child_fiber() called</text>
<text text-anchor="start" x="270" y="-1341.05" font-family="Helvetica,sans-Serif" font-size="11.00"> &#160;&#160;&#160;&#160;&#160;&#160;&#160;&#160;&#160;&#160;&#160;&#160;&#160;&#160;&#160;&#160;&#160;</text>
<text text-anchor="start" x="324" y="-1341.05" font-family="Helvetica,sans-Serif" font-size="9.00" fill="#666666">caller: resume / propagate / abort / cancel</text>
</g>
<!-- step1 -->
<g id="node2" class="node">
<title>step1</title>
<path fill="#fef7e0" stroke="#333333" stroke-width="1.2" d="M507.12,-1291.5C507.12,-1291.5 254.88,-1291.5 254.88,-1291.5 248.88,-1291.5 242.88,-1285.5 242.88,-1279.5 242.88,-1279.5 242.88,-1267.5 242.88,-1267.5 242.88,-1261.5 248.88,-1255.5 254.88,-1255.5 254.88,-1255.5 507.12,-1255.5 507.12,-1255.5 513.12,-1255.5 519.12,-1261.5 519.12,-1267.5 519.12,-1267.5 519.12,-1279.5 519.12,-1279.5 519.12,-1285.5 513.12,-1291.5 507.12,-1291.5"/>
<text text-anchor="start" x="321" y="-1275.05" font-family="Helvetica,sans-Serif" font-size="11.00">Step 1 — Take child fiber</text>
<text text-anchor="start" x="250.88" y="-1264.05" font-family="Helvetica,sans-Serif" font-size="11.00"> &#160;&#160;&#160;&#160;&#160;&#160;&#160;&#160;&#160;&#160;&#160;&#160;&#160;&#160;&#160;&#160;&#160;</text>
<text text-anchor="start" x="304.88" y="-1264.05" font-family="Helvetica,sans-Serif" font-size="9.00" fill="#666666">FiberHandle::take() → child_fiber (slot set to None)</text>
</g>
<!-- entry&#45;&gt;step1 -->
<g id="edge1" class="edge">
<title>entry&#45;&gt;step1</title>
<path fill="none" stroke="#666666" d="M381,-1332.1C381,-1323.49 381,-1312.87 381,-1303.1"/>
<polygon fill="#666666" stroke="#666666" points="384.5,-1303.31 381,-1293.31 377.5,-1303.31 384.5,-1303.31"/>
</g>
<!-- step2 -->
<g id="node3" class="node">
<title>step2</title>
<path fill="#fef7e0" stroke="#333333" stroke-width="1.2" d="M467,-1214.5C467,-1214.5 295,-1214.5 295,-1214.5 289,-1214.5 283,-1208.5 283,-1202.5 283,-1202.5 283,-1169.5 283,-1169.5 283,-1163.5 289,-1157.5 295,-1157.5 295,-1157.5 467,-1157.5 467,-1157.5 473,-1157.5 479,-1163.5 479,-1169.5 479,-1169.5 479,-1202.5 479,-1202.5 479,-1208.5 473,-1214.5 467,-1214.5"/>
<text text-anchor="start" x="301.88" y="-1201.05" font-family="Helvetica,sans-Serif" font-size="11.00">Step 2 — Wire parent/child chain</text>
<text text-anchor="start" x="298.5" y="-1190.05" font-family="Helvetica,sans-Serif" font-size="11.00"> &#160;&#160;&#160;&#160;&#160;&#160;&#160;&#160;&#160;&#160;&#160;&#160;&#160;&#160;&#160;&#160;&#160;</text>
<text text-anchor="start" x="352.5" y="-1190.05" font-family="Helvetica,sans-Serif" font-size="9.00" fill="#666666">parent.child = child_handle</text>
<text text-anchor="start" x="294.38" y="-1180.95" font-family="Helvetica,sans-Serif" font-size="9.00" fill="#666666"> &#160;&#160;&#160;&#160;&#160;&#160;&#160;&#160;&#160;&#160;&#160;&#160;&#160;&#160;&#160;&#160;&#160;parent.child_value = child_value</text>
<text text-anchor="start" x="304.88" y="-1171.95" font-family="Helvetica,sans-Serif" font-size="9.00" fill="#666666"> &#160;&#160;&#160;&#160;&#160;&#160;&#160;&#160;&#160;&#160;&#160;&#160;&#160;&#160;&#160;&#160;&#160;child.parent = weak(parent)</text>
<text text-anchor="start" x="291" y="-1162.95" font-family="Helvetica,sans-Serif" font-size="9.00" fill="#666666"> &#160;&#160;&#160;&#160;&#160;&#160;&#160;&#160;&#160;&#160;&#160;&#160;&#160;&#160;&#160;&#160;&#160;child.parent_value = parent_value</text>
</g>
<!-- step1&#45;&gt;step2 -->
<g id="edge2" class="edge">
<title>step1&#45;&gt;step2</title>
<path fill="none" stroke="#666666" d="M381,-1255.2C381,-1246.76 381,-1236.24 381,-1226.01"/>
<polygon fill="#666666" stroke="#666666" points="384.5,-1226.22 381,-1216.22 377.5,-1226.22 384.5,-1226.22"/>
</g>
<!-- step3 -->
<g id="node4" class="node">
<title>step3</title>
<path fill="#e0f0e8" stroke="#333333" stroke-width="1.2" d="M500.75,-1094.5C500.75,-1094.5 261.25,-1094.5 261.25,-1094.5 255.25,-1094.5 249.25,-1088.5 249.25,-1082.5 249.25,-1082.5 249.25,-1049.5 249.25,-1049.5 249.25,-1043.5 255.25,-1037.5 261.25,-1037.5 261.25,-1037.5 500.75,-1037.5 500.75,-1037.5 506.75,-1037.5 512.75,-1043.5 512.75,-1049.5 512.75,-1049.5 512.75,-1082.5 512.75,-1082.5 512.75,-1088.5 506.75,-1094.5 500.75,-1094.5"/>
<text text-anchor="start" x="328.12" y="-1081.05" font-family="Helvetica,sans-Serif" font-size="11.00">Step 3 — Swap fibers</text>
<text text-anchor="start" x="257.25" y="-1070.05" font-family="Helvetica,sans-Serif" font-size="11.00"> &#160;&#160;&#160;&#160;&#160;&#160;&#160;&#160;&#160;&#160;&#160;&#160;&#160;&#160;&#160;&#160;&#160;</text>
<text text-anchor="start" x="311.25" y="-1070.05" font-family="Helvetica,sans-Serif" font-size="9.00" fill="#666666">save current_fiber_handle / current_fiber_value</text>
<text text-anchor="start" x="307.5" y="-1060.95" font-family="Helvetica,sans-Serif" font-size="9.00" fill="#666666"> &#160;&#160;&#160;&#160;&#160;&#160;&#160;&#160;&#160;&#160;&#160;&#160;&#160;&#160;&#160;&#160;&#160;set to child handle + value</text>
<text text-anchor="start" x="294.75" y="-1051.95" font-family="Helvetica,sans-Serif" font-size="9.00" fill="#666666"> &#160;&#160;&#160;&#160;&#160;&#160;&#160;&#160;&#160;&#160;&#160;&#160;&#160;&#160;&#160;&#160;&#160;mem::swap(vm.fiber, child_fiber)</text>
<text text-anchor="start" x="306.38" y="-1042.95" font-family="Helvetica,sans-Serif" font-size="9.00" fill="#666666"> &#160;&#160;&#160;&#160;&#160;&#160;&#160;&#160;&#160;&#160;&#160;&#160;&#160;&#160;&#160;&#160;&#160;→ vm.fiber is now the child</text>
</g>
<!-- step2&#45;&gt;step3 -->
<g id="edge3" class="edge">
<title>step2&#45;&gt;step3</title>
<path fill="none" stroke="#666666" d="M381,-1157.04C381,-1141.75 381,-1122.59 381,-1105.87"/>
<polygon fill="#666666" stroke="#666666" points="384.5,-1106.28 381,-1096.28 377.5,-1106.28 384.5,-1106.28"/>
</g>
<!-- step3a -->
<g id="node5" class="node">
<title>step3a</title>
<path fill="#e0f0e8" stroke="#333333" stroke-width="1.2" d="M480.5,-987C480.5,-987 281.5,-987 281.5,-987 275.5,-987 269.5,-981 269.5,-975 269.5,-975 269.5,-951 269.5,-951 269.5,-945 275.5,-939 281.5,-939 281.5,-939 480.5,-939 480.5,-939 486.5,-939 492.5,-945 492.5,-951 492.5,-951 492.5,-975 492.5,-975 492.5,-981 486.5,-987 480.5,-987"/>
<text text-anchor="start" x="313.88" y="-973.55" font-family="Helvetica,sans-Serif" font-size="11.00">Step 3a — Install child heap</text>
<text text-anchor="start" x="277.5" y="-962.55" font-family="Helvetica,sans-Serif" font-size="11.00"> &#160;&#160;&#160;&#160;&#160;&#160;&#160;&#160;&#160;&#160;&#160;&#160;&#160;&#160;&#160;&#160;&#160;&#160;</text>
<text text-anchor="start" x="334.5" y="-962.55" font-family="Helvetica,sans-Serif" font-size="9.00" fill="#666666">save_current_heap() → saved_heap</text>
<text text-anchor="start" x="298.5" y="-953.45" font-family="Helvetica,sans-Serif" font-size="9.00" fill="#666666"> &#160;&#160;&#160;&#160;&#160;&#160;&#160;&#160;&#160;&#160;&#160;&#160;&#160;&#160;&#160;&#160;&#160;&#160;install_fiber_heap(child.heap)</text>
<text text-anchor="start" x="304.12" y="-944.45" font-family="Helvetica,sans-Serif" font-size="9.00" fill="#666666"> &#160;&#160;&#160;&#160;&#160;&#160;&#160;&#160;&#160;&#160;&#160;&#160;&#160;&#160;&#160;&#160;&#160;&#160;heap.init_active_allocator()</text>
</g>
<!-- step3&#45;&gt;step3a -->
<g id="edge4" class="edge">
<title>step3&#45;&gt;step3a</title>
<path fill="none" stroke="#666666" d="M381,-1037.13C381,-1025.28 381,-1011.32 381,-998.79"/>
<polygon fill="#666666" stroke="#666666" points="384.5,-998.85 381,-988.85 377.5,-998.85 384.5,-998.85"/>
<text text-anchor="middle" x="396.75" y="-1008.95" font-family="Helvetica,sans-Serif" font-size="9.00" fill="#444444">swap in</text>
</g>
<!-- step3b_gate -->
<g id="node6" class="node">
<title>step3b_gate</title>
<path fill="#fff4cc" stroke="#cc8800" stroke-width="1.2" d="M369.1,-896.45C369.1,-896.45 162.4,-869.55 162.4,-869.55 156.45,-868.77 156.45,-867.23 162.4,-866.45 162.4,-866.45 369.1,-839.55 369.1,-839.55 375.05,-838.77 386.95,-838.77 392.9,-839.55 392.9,-839.55 599.6,-866.45 599.6,-866.45 605.55,-867.23 605.55,-868.77 599.6,-869.55 599.6,-869.55 392.9,-896.45 392.9,-896.45 386.95,-897.23 375.05,-897.23 369.1,-896.45"/>
<text text-anchor="start" x="323.25" y="-869.55" font-family="Helvetica,sans-Serif" font-size="11.00">may_yield() || may_io()?</text>
<text text-anchor="start" x="273.75" y="-858.55" font-family="Helvetica,sans-Serif" font-size="11.00"> &#160;&#160;&#160;&#160;&#160;&#160;&#160;&#160;&#160;&#160;&#160;&#160;&#160;&#160;&#160;&#160;&#160;&#160;&#160;&#160;&#160;&#160;&#160;</text>
<text text-anchor="start" x="345.75" y="-858.55" font-family="Helvetica,sans-Serif" font-size="9.00" fill="#666666">check child closure template signal</text>
</g>
<!-- step3a&#45;&gt;step3b_gate -->
<g id="edge5" class="edge">
<title>step3a&#45;&gt;step3b_gate</title>
<path fill="none" stroke="#666666" d="M381,-938.53C381,-929.79 381,-919.6 381,-909.75"/>
<polygon fill="#666666" stroke="#666666" points="384.5,-909.98 381,-899.98 377.5,-909.98 384.5,-909.98"/>
</g>
<!-- step3b_a -->
<g id="node7" class="node">
<title>step3b_a</title>
<path fill="#fde8e8" stroke="#333333" stroke-width="1.2" d="M215.5,-772.5C215.5,-772.5 28.5,-772.5 28.5,-772.5 22.5,-772.5 16.5,-766.5 16.5,-760.5 16.5,-760.5 16.5,-745.5 16.5,-745.5 16.5,-739.5 22.5,-733.5 28.5,-733.5 28.5,-733.5 215.5,-733.5 215.5,-733.5 221.5,-733.5 227.5,-739.5 227.5,-745.5 227.5,-745.5 227.5,-760.5 227.5,-760.5 227.5,-766.5 221.5,-772.5 215.5,-772.5"/>
<text text-anchor="start" x="41.75" y="-759.05" font-family="Helvetica,sans-Serif" font-size="11.00">Case (a): propagate shared_alloc</text>
<text text-anchor="start" x="24.5" y="-748.05" font-family="Helvetica,sans-Serif" font-size="11.00"> &#160;&#160;&#160;&#160;&#160;&#160;&#160;&#160;&#160;&#160;&#160;&#160;&#160;&#160;&#160;&#160;&#160;&#160;&#160;&#160;</text>
<text text-anchor="start" x="87.5" y="-748.05" font-family="Helvetica,sans-Serif" font-size="9.00" fill="#666666">parent already has shared_alloc</text>
<text text-anchor="start" x="40.62" y="-738.95" font-family="Helvetica,sans-Serif" font-size="9.00" fill="#666666"> &#160;&#160;&#160;&#160;&#160;&#160;&#160;&#160;&#160;&#160;&#160;&#160;&#160;&#160;&#160;&#160;&#160;&#160;&#160;&#160;→ give same pointer to child</text>
</g>
<!-- step3b_gate&#45;&gt;step3b_a -->
<g id="edge6" class="edge">
<title>step3b_gate&#45;&gt;step3b_a</title>
<path fill="none" stroke="#cc8800" d="M329.21,-844.4C284.79,-825.03 221.02,-797.2 175.98,-777.55"/>
<polygon fill="#cc8800" stroke="#cc8800" points="177.48,-774.39 166.92,-773.6 174.69,-780.8 177.48,-774.39"/>
<text text-anchor="middle" x="298.13" y="-809.45" font-family="Helvetica,sans-Serif" font-size="9.00" fill="#cc8800">yes, parent has</text>
<text text-anchor="middle" x="298.13" y="-798.95" font-family="Helvetica,sans-Serif" font-size="9.00" fill="#cc8800">shared_alloc</text>
</g>
<!-- step3b_c -->
<g id="node8" class="node">
<title>step3b_c</title>
<path fill="#fde8e8" stroke="#333333" stroke-width="1.2" d="M493.25,-777C493.25,-777 268.75,-777 268.75,-777 262.75,-777 256.75,-771 256.75,-765 256.75,-765 256.75,-741 256.75,-741 256.75,-735 262.75,-729 268.75,-729 268.75,-729 493.25,-729 493.25,-729 499.25,-729 505.25,-735 505.25,-741 505.25,-741 505.25,-765 505.25,-765 505.25,-771 499.25,-777 493.25,-777"/>
<text text-anchor="start" x="310.5" y="-763.55" font-family="Helvetica,sans-Serif" font-size="11.00">Case (c): create shared_alloc</text>
<text text-anchor="start" x="293.62" y="-752.55" font-family="Helvetica,sans-Serif" font-size="11.00"> &#160;&#160;&#160;&#160;&#160;&#160;&#160;&#160;&#160;&#160;&#160;&#160;&#160;&#160;&#160;&#160;&#160;&#160;&#160;&#160;</text>
<text text-anchor="start" x="356.62" y="-752.55" font-family="Helvetica,sans-Serif" font-size="9.00" fill="#666666">parent has no shared_alloc</text>
<text text-anchor="start" x="264.75" y="-743.45" font-family="Helvetica,sans-Serif" font-size="9.00" fill="#666666"> &#160;&#160;&#160;&#160;&#160;&#160;&#160;&#160;&#160;&#160;&#160;&#160;&#160;&#160;&#160;&#160;&#160;&#160;&#160;&#160;→ create on parent heap, give pointer to child</text>
<text text-anchor="start" x="283.12" y="-734.45" font-family="Helvetica,sans-Serif" font-size="9.00" fill="#666666"> &#160;&#160;&#160;&#160;&#160;&#160;&#160;&#160;&#160;&#160;&#160;&#160;&#160;&#160;&#160;&#160;&#160;&#160;&#160;&#160;(handles root→child after issue&#45;525)</text>
</g>
<!-- step3b_gate&#45;&gt;step3b_c -->
<g id="edge7" class="edge">
<title>step3b_gate&#45;&gt;step3b_c</title>
<path fill="none" stroke="#cc8800" d="M381,-837.61C381,-822.6 381,-804.25 381,-788.56"/>
<polygon fill="#cc8800" stroke="#cc8800" points="384.5,-788.7 381,-778.7 377.5,-788.7 384.5,-788.7"/>
<text text-anchor="middle" x="407.62" y="-809.45" font-family="Helvetica,sans-Serif" font-size="9.00" fill="#cc8800">yes, no</text>
<text text-anchor="middle" x="407.62" y="-798.95" font-family="Helvetica,sans-Serif" font-size="9.00" fill="#cc8800">shared_alloc</text>
</g>
<!-- step3b_skip -->
<g id="node9" class="node">
<title>step3b_skip</title>
<polygon fill="#f0f0f0" stroke="#aaaaaa" stroke-width="1.2" points="729.25,-771 534.75,-771 534.75,-735 735.25,-735 735.25,-765 729.25,-771"/>
<polyline fill="none" stroke="#aaaaaa" stroke-width="1.2" points="729.25,-771 729.25,-765"/>
<polyline fill="none" stroke="#aaaaaa" stroke-width="1.2" points="735.25,-765 729.25,-765"/>
<text text-anchor="start" x="588.88" y="-754.55" font-family="Helvetica,sans-Serif" font-size="11.00" fill="#888888">(skip — silent fiber)</text>
<text text-anchor="start" x="542.75" y="-743.55" font-family="Helvetica,sans-Serif" font-size="11.00" fill="#888888"> &#160;&#160;&#160;&#160;&#160;&#160;&#160;&#160;&#160;&#160;&#160;&#160;&#160;&#160;&#160;&#160;&#160;&#160;&#160;&#160;&#160;&#160;&#160;</text>
<text text-anchor="start" x="614.75" y="-743.55" font-family="Helvetica,sans-Serif" font-size="9.00" fill="#666666">no shared allocator needed</text>
</g>
<!-- step3b_gate&#45;&gt;step3b_skip -->
<g id="edge8" class="edge">
<title>step3b_gate&#45;&gt;step3b_skip</title>
<path fill="none" stroke="#aaaaaa" stroke-dasharray="5,2" d="M432.1,-844.27C476.8,-824.38 541.31,-795.68 585.52,-776.01"/>
<polygon fill="#aaaaaa" stroke="#aaaaaa" points="586.93,-779.22 594.64,-771.95 584.08,-772.82 586.93,-779.22"/>
<text text-anchor="middle" x="543.47" y="-804.2" font-family="Helvetica,sans-Serif" font-size="9.00" fill="#aaaaaa">no</text>
</g>
<!-- step4 -->
<g id="node11" class="node">
<title>step4</title>
<path fill="#e0eefc" stroke="#336699" stroke-width="1.5" d="M456.5,-688C456.5,-688 305.5,-688 305.5,-688 299.5,-688 293.5,-682 293.5,-676 293.5,-676 293.5,-664 293.5,-664 293.5,-658 299.5,-652 305.5,-652 305.5,-652 456.5,-652 456.5,-652 462.5,-652 468.5,-658 468.5,-664 468.5,-664 468.5,-676 468.5,-676 468.5,-682 462.5,-688 456.5,-688"/>
<text text-anchor="start" x="301.5" y="-671.55" font-family="Helvetica,sans-Serif" font-size="11.00">Step 4 — Execute child bytecode</text>
<text text-anchor="start" x="301.5" y="-660.55" font-family="Helvetica,sans-Serif" font-size="11.00"> &#160;&#160;&#160;&#160;&#160;&#160;&#160;&#160;&#160;&#160;&#160;&#160;&#160;&#160;&#160;&#160;&#160;</text>
<text text-anchor="start" x="355.5" y="-660.55" font-family="Helvetica,sans-Serif" font-size="9.00" fill="#666666">execute(vm) → SignalBits</text>
</g>
<!-- step3b_a&#45;&gt;step4 -->
<g id="edge9" class="edge">
<title>step3b_a&#45;&gt;step4</title>
<path fill="none" stroke="#cc4400" d="M182.72,-733.01C222.17,-720.67 273.61,-704.59 314.2,-691.89"/>
<polygon fill="#cc4400" stroke="#cc4400" points="315.14,-695.27 323.64,-688.94 313.05,-688.58 315.14,-695.27"/>
</g>
<!-- step3b_c&#45;&gt;step4 -->
<g id="edge10" class="edge">
<title>step3b_c&#45;&gt;step4</title>
<path fill="none" stroke="#cc4400" d="M381,-728.57C381,-719.57 381,-709.19 381,-699.75"/>
<polygon fill="#cc4400" stroke="#cc4400" points="384.5,-699.97 381,-689.97 377.5,-699.97 384.5,-699.97"/>
</g>
<!-- step3b_skip&#45;&gt;step4 -->
<g id="edge11" class="edge">
<title>step3b_skip&#45;&gt;step4</title>
<path fill="none" stroke="#aaaaaa" stroke-dasharray="5,2" d="M580.2,-734.52C540.97,-722.02 487.99,-705.12 446.52,-691.9"/>
<polygon fill="#aaaaaa" stroke="#aaaaaa" points="447.74,-688.61 437.15,-688.9 445.61,-695.28 447.74,-688.61"/>
</g>
<!-- step3b_join -->
<!-- step5_gate -->
<g id="node12" class="node">
<title>step5_gate</title>
<path fill="#fff4cc" stroke="#cc8800" stroke-width="1.2" d="M369.16,-609.02C369.16,-609.02 213.34,-582.98 213.34,-582.98 207.42,-581.99 207.42,-580.01 213.34,-579.02 213.34,-579.02 369.16,-552.98 369.16,-552.98 375.08,-551.99 386.92,-551.99 392.84,-552.98 392.84,-552.98 548.66,-579.02 548.66,-579.02 554.58,-580.01 554.58,-581.99 548.66,-582.98 548.66,-582.98 392.84,-609.02 392.84,-609.02 386.92,-610.01 375.08,-610.01 369.16,-609.02"/>
<text text-anchor="start" x="352.12" y="-582.55" font-family="Helvetica,sans-Serif" font-size="11.00">bits.is_ok()?</text>
<text text-anchor="start" x="299.25" y="-571.55" font-family="Helvetica,sans-Serif" font-size="11.00"> &#160;&#160;&#160;&#160;&#160;&#160;&#160;&#160;&#160;&#160;&#160;&#160;&#160;&#160;&#160;&#160;&#160;&#160;&#160;&#160;&#160;&#160;</text>
<text text-anchor="start" x="368.25" y="-571.55" font-family="Helvetica,sans-Serif" font-size="9.00" fill="#666666">SIG_OK vs other signal</text>
</g>
<!-- step4&#45;&gt;step5_gate -->
<g id="edge12" class="edge">
<title>step4&#45;&gt;step5_gate</title>
<path fill="none" stroke="#666666" d="M381,-651.81C381,-643.46 381,-633.05 381,-622.83"/>
<polygon fill="#666666" stroke="#666666" points="384.5,-623.01 381,-613.01 377.5,-623.01 384.5,-623.01"/>
</g>
<!-- step5_dead -->
<g id="node13" class="node">
<title>step5_dead</title>
<path fill="#e8f0fe" stroke="#333333" stroke-width="1.2" d="M332.62,-490C332.62,-490 179.38,-490 179.38,-490 173.38,-490 167.38,-484 167.38,-478 167.38,-478 167.38,-466 167.38,-466 167.38,-460 173.38,-454 179.38,-454 179.38,-454 332.62,-454 332.62,-454 338.62,-454 344.62,-460 344.62,-466 344.62,-466 344.62,-478 344.62,-478 344.62,-484 338.62,-490 332.62,-490"/>
<text text-anchor="start" x="218.88" y="-473.55" font-family="Helvetica,sans-Serif" font-size="11.00">Status → Dead</text>
<text text-anchor="start" x="175.38" y="-462.55" font-family="Helvetica,sans-Serif" font-size="11.00"> &#160;&#160;&#160;&#160;&#160;&#160;&#160;&#160;&#160;&#160;&#160;&#160;&#160;&#160;&#160;&#160;&#160;&#160;&#160;&#160;&#160;&#160;</text>
<text text-anchor="start" x="244.38" y="-462.55" font-family="Helvetica,sans-Serif" font-size="9.00" fill="#666666">child ran to completion</text>
</g>
<!-- step5_gate&#45;&gt;step5_dead -->
<g id="edge13" class="edge">
<title>step5_gate&#45;&gt;step5_dead</title>
<path fill="none" stroke="#cc8800" d="M352.32,-555.45C332.1,-538.15 305.13,-515.06 284.87,-497.71"/>
<polygon fill="#cc8800" stroke="#cc8800" points="287.38,-495.26 277.51,-491.41 282.83,-500.57 287.38,-495.26"/>
<text text-anchor="middle" x="338.75" y="-522.45" font-family="Helvetica,sans-Serif" font-size="9.00" fill="#cc8800">SIG_OK</text>
</g>
<!-- step5_paused -->
<g id="node14" class="node">
<title>step5_paused</title>
<path fill="#e8f0fe" stroke="#333333" stroke-width="1.2" d="M630,-500.5C630,-500.5 386,-500.5 386,-500.5 380,-500.5 374,-494.5 374,-488.5 374,-488.5 374,-455.5 374,-455.5 374,-449.5 380,-443.5 386,-443.5 386,-443.5 630,-443.5 630,-443.5 636,-443.5 642,-449.5 642,-455.5 642,-455.5 642,-488.5 642,-488.5 642,-494.5 636,-500.5 630,-500.5"/>
<text text-anchor="start" x="465.62" y="-487.05" font-family="Helvetica,sans-Serif" font-size="11.00">Status → Paused</text>
<text text-anchor="start" x="440.12" y="-476.05" font-family="Helvetica,sans-Serif" font-size="11.00"> &#160;&#160;&#160;&#160;&#160;&#160;&#160;&#160;&#160;&#160;&#160;&#160;&#160;&#160;&#160;&#160;&#160;&#160;&#160;&#160;&#160;&#160;&#160;&#160;</text>
<text text-anchor="start" x="515.12" y="-476.05" font-family="Helvetica,sans-Serif" font-size="9.00" fill="#666666">caller finalizes:</text>
<text text-anchor="start" x="382" y="-466.95" font-family="Helvetica,sans-Serif" font-size="9.00" fill="#666666"> &#160;&#160;&#160;&#160;&#160;&#160;&#160;&#160;&#160;&#160;&#160;&#160;&#160;&#160;&#160;&#160;&#160;&#160;&#160;&#160;&#160;&#160;&#160;&#160;caught SIG_ERROR → Suspended (resumable)</text>
<text text-anchor="start" x="395.5" y="-457.95" font-family="Helvetica,sans-Serif" font-size="9.00" fill="#666666"> &#160;&#160;&#160;&#160;&#160;&#160;&#160;&#160;&#160;&#160;&#160;&#160;&#160;&#160;&#160;&#160;&#160;&#160;&#160;&#160;&#160;&#160;&#160;&#160;uncaught SIG_ERROR → Error (terminal)</text>
<text text-anchor="start" x="397" y="-448.95" font-family="Helvetica,sans-Serif" font-size="9.00" fill="#666666"> &#160;&#160;&#160;&#160;&#160;&#160;&#160;&#160;&#160;&#160;&#160;&#160;&#160;&#160;&#160;&#160;&#160;&#160;&#160;&#160;&#160;&#160;&#160;&#160;SIG_HALT → Dead (via resume handler)</text>
</g>
<!-- step5_gate&#45;&gt;step5_paused -->
<g id="edge14" class="edge">
<title>step5_gate&#45;&gt;step5_paused</title>
<path fill="none" stroke="#cc8800" d="M410.14,-555.45C426.75,-541.45 447.86,-523.67 466.21,-508.21"/>
<polygon fill="#cc8800" stroke="#cc8800" points="468.42,-510.92 473.81,-501.8 463.91,-505.57 468.42,-510.92"/>
<text text-anchor="middle" x="472.31" y="-522.45" font-family="Helvetica,sans-Serif" font-size="9.00" fill="#cc8800">other signal</text>
</g>
<!-- step6 -->
<g id="node16" class="node">
<title>step6</title>
<path fill="#fef7e0" stroke="#333333" stroke-width="1.2" d="M468.5,-402.5C468.5,-402.5 293.5,-402.5 293.5,-402.5 287.5,-402.5 281.5,-396.5 281.5,-390.5 281.5,-390.5 281.5,-375.5 281.5,-375.5 281.5,-369.5 287.5,-363.5 293.5,-363.5 293.5,-363.5 468.5,-363.5 468.5,-363.5 474.5,-363.5 480.5,-369.5 480.5,-375.5 480.5,-375.5 480.5,-390.5 480.5,-390.5 480.5,-396.5 474.5,-402.5 468.5,-402.5"/>
<text text-anchor="start" x="325.12" y="-389.05" font-family="Helvetica,sans-Serif" font-size="11.00">Step 6 — Extract result</text>
<text text-anchor="start" x="301.12" y="-378.05" font-family="Helvetica,sans-Serif" font-size="11.00"> &#160;&#160;&#160;&#160;&#160;&#160;&#160;&#160;&#160;&#160;&#160;&#160;&#160;&#160;&#160;&#160;&#160;</text>
<text text-anchor="start" x="355.12" y="-378.05" font-family="Helvetica,sans-Serif" font-size="9.00" fill="#666666">fiber.signal → (bits, value)</text>
<text text-anchor="start" x="289.5" y="-368.95" font-family="Helvetica,sans-Serif" font-size="9.00" fill="#666666"> &#160;&#160;&#160;&#160;&#160;&#160;&#160;&#160;&#160;&#160;&#160;&#160;&#160;&#160;&#160;&#160;&#160;fallback: (bits, NIL) if signal is None</text>
</g>
<!-- step5_dead&#45;&gt;step6 -->
<g id="edge15" class="edge">
<title>step5_dead&#45;&gt;step6</title>
<path fill="none" stroke="#666666" d="M281,-453.6C299.2,-440.93 324.14,-423.57 344.56,-409.36"/>
<polygon fill="#666666" stroke="#666666" points="346.43,-412.32 352.64,-403.74 342.43,-406.58 346.43,-412.32"/>
</g>
<!-- step5_paused&#45;&gt;step6 -->
<g id="edge16" class="edge">
<title>step5_paused&#45;&gt;step6</title>
<path fill="none" stroke="#666666" d="M467.47,-443.23C451.6,-432.36 433.51,-419.97 418,-409.35"/>
<polygon fill="#666666" stroke="#666666" points="420.2,-406.61 409.97,-403.84 416.24,-412.38 420.2,-406.61"/>
</g>
<!-- step5_join -->
<!-- step7a -->
<g id="node17" class="node">
<title>step7a</title>
<path fill="#fde8e8" stroke="#333333" stroke-width="1.2" d="M477.5,-300.5C477.5,-300.5 284.5,-300.5 284.5,-300.5 278.5,-300.5 272.5,-294.5 272.5,-288.5 272.5,-288.5 272.5,-273.5 272.5,-273.5 272.5,-267.5 278.5,-261.5 284.5,-261.5 284.5,-261.5 477.5,-261.5 477.5,-261.5 483.5,-261.5 489.5,-267.5 489.5,-273.5 489.5,-273.5 489.5,-288.5 489.5,-288.5 489.5,-294.5 483.5,-300.5 477.5,-300.5"/>
<text text-anchor="start" x="296.25" y="-287.05" font-family="Helvetica,sans-Serif" font-size="11.00">Step 7a — Clear child shared_alloc</text>
<text text-anchor="start" x="298.5" y="-276.05" font-family="Helvetica,sans-Serif" font-size="11.00"> &#160;&#160;&#160;&#160;&#160;&#160;&#160;&#160;&#160;&#160;&#160;&#160;&#160;&#160;&#160;&#160;&#160;&#160;</text>
<text text-anchor="start" x="355.5" y="-276.05" font-family="Helvetica,sans-Serif" font-size="9.00" fill="#666666">heap.clear_shared_alloc()</text>
<text text-anchor="start" x="280.5" y="-266.95" font-family="Helvetica,sans-Serif" font-size="9.00" fill="#666666"> &#160;&#160;&#160;&#160;&#160;&#160;&#160;&#160;&#160;&#160;&#160;&#160;&#160;&#160;&#160;&#160;&#160;&#160;pointer no longer valid after swap&#45;back</text>
</g>
<!-- step6&#45;&gt;step7a -->
<g id="edge17" class="edge">
<title>step6&#45;&gt;step7a</title>
<path fill="none" stroke="#666666" d="M381,-363.19C381,-348.8 381,-328.68 381,-312.07"/>
<polygon fill="#666666" stroke="#666666" points="384.5,-312.24 381,-302.24 377.5,-312.24 384.5,-312.24"/>
</g>
<!-- step7 -->
<g id="node18" class="node">
<title>step7</title>
<path fill="#e0f0e8" stroke="#333333" stroke-width="1.2" d="M498.5,-211C498.5,-211 263.5,-211 263.5,-211 257.5,-211 251.5,-205 251.5,-199 251.5,-199 251.5,-166 251.5,-166 251.5,-160 257.5,-154 263.5,-154 263.5,-154 498.5,-154 498.5,-154 504.5,-154 510.5,-160 510.5,-166 510.5,-166 510.5,-199 510.5,-199 510.5,-205 504.5,-211 498.5,-211"/>
<text text-anchor="start" x="330" y="-197.55" font-family="Helvetica,sans-Serif" font-size="11.00">Step 7 — Swap back</text>
<text text-anchor="start" x="283.12" y="-186.55" font-family="Helvetica,sans-Serif" font-size="11.00"> &#160;&#160;&#160;&#160;&#160;&#160;&#160;&#160;&#160;&#160;&#160;&#160;&#160;&#160;&#160;&#160;&#160;</text>
<text text-anchor="start" x="337.12" y="-186.55" font-family="Helvetica,sans-Serif" font-size="9.00" fill="#666666">restore_saved_heap(saved_heap)</text>
<text text-anchor="start" x="294.75" y="-177.45" font-family="Helvetica,sans-Serif" font-size="9.00" fill="#666666"> &#160;&#160;&#160;&#160;&#160;&#160;&#160;&#160;&#160;&#160;&#160;&#160;&#160;&#160;&#160;&#160;&#160;mem::swap(vm.fiber, child_fiber)</text>
<text text-anchor="start" x="307.5" y="-168.45" font-family="Helvetica,sans-Serif" font-size="9.00" fill="#666666"> &#160;&#160;&#160;&#160;&#160;&#160;&#160;&#160;&#160;&#160;&#160;&#160;&#160;&#160;&#160;&#160;&#160;→ vm.fiber is parent again</text>
<text text-anchor="start" x="259.5" y="-159.45" font-family="Helvetica,sans-Serif" font-size="9.00" fill="#666666"> &#160;&#160;&#160;&#160;&#160;&#160;&#160;&#160;&#160;&#160;&#160;&#160;&#160;&#160;&#160;&#160;&#160;restore current_fiber_handle / current_fiber_value</text>
</g>
<!-- step7a&#45;&gt;step7 -->
<g id="edge18" class="edge">
<title>step7a&#45;&gt;step7</title>
<path fill="none" stroke="#666666" d="M381,-261.39C381,-250.38 381,-236 381,-222.6"/>
<polygon fill="#666666" stroke="#666666" points="384.5,-222.7 381,-212.7 377.5,-222.7 384.5,-222.7"/>
<text text-anchor="middle" x="402.75" y="-232.95" font-family="Helvetica,sans-Serif" font-size="9.00" fill="#444444">swap back</text>
</g>
<!-- step8 -->
<g id="node19" class="node">
<title>step8</title>
<path fill="#fef7e0" stroke="#333333" stroke-width="1.2" d="M462.5,-113C462.5,-113 299.5,-113 299.5,-113 293.5,-113 287.5,-107 287.5,-101 287.5,-101 287.5,-89 287.5,-89 287.5,-83 293.5,-77 299.5,-77 299.5,-77 462.5,-77 462.5,-77 468.5,-77 474.5,-83 474.5,-89 474.5,-89 474.5,-101 474.5,-101 474.5,-107 468.5,-113 462.5,-113"/>
<text text-anchor="start" x="315.75" y="-96.55" font-family="Helvetica,sans-Serif" font-size="11.00">Step 8 — Return child fiber</text>
<text text-anchor="start" x="295.5" y="-85.55" font-family="Helvetica,sans-Serif" font-size="11.00"> &#160;&#160;&#160;&#160;&#160;&#160;&#160;&#160;&#160;&#160;&#160;&#160;&#160;&#160;&#160;&#160;&#160;</text>
<text text-anchor="start" x="349.5" y="-85.55" font-family="Helvetica,sans-Serif" font-size="9.00" fill="#666666">FiberHandle::put(child_fiber)</text>
</g>
<!-- step7&#45;&gt;step8 -->
<g id="edge19" class="edge">
<title>step7&#45;&gt;step8</title>
<path fill="none" stroke="#666666" d="M381,-153.5C381,-144.29 381,-134.04 381,-124.77"/>
<polygon fill="#666666" stroke="#666666" points="384.5,-124.84 381,-114.84 377.5,-124.84 384.5,-124.84"/>
</g>
<!-- exit -->
<g id="node20" class="node">
<title>exit</title>
<polygon fill="#e8f0fe" stroke="#333333" stroke-width="1.2" points="482,-36 274,-36 274,0 488,0 488,-30 482,-36"/>
<polyline fill="none" stroke="#333333" stroke-width="1.2" points="482,-36 482,-30"/>
<polyline fill="none" stroke="#333333" stroke-width="1.2" points="488,-30 482,-30"/>
<text text-anchor="start" x="321" y="-19.55" font-family="Helvetica,sans-Serif" font-size="11.00">return (SignalBits, Value)</text>
<text text-anchor="start" x="282" y="-8.55" font-family="Helvetica,sans-Serif" font-size="11.00"> &#160;&#160;&#160;&#160;&#160;&#160;&#160;&#160;&#160;&#160;&#160;&#160;&#160;&#160;&#160;&#160;</text>
<text text-anchor="start" x="333" y="-8.55" font-family="Helvetica,sans-Serif" font-size="9.00" fill="#666666">status finalization continues in caller</text>
</g>
<!-- step8&#45;&gt;exit -->
<g id="edge20" class="edge">
<title>step8&#45;&gt;exit</title>
<path fill="none" stroke="#666666" d="M381,-76.6C381,-67.99 381,-57.37 381,-47.6"/>
<polygon fill="#666666" stroke="#666666" points="384.5,-47.81 381,-37.81 377.5,-47.81 384.5,-47.81"/>
</g>
</g>
</svg>
