<?xml version="1.0" encoding="UTF-8" standalone="no"?>
<!DOCTYPE svg PUBLIC "-//W3C//DTD SVG 1.1//EN"
 "http://www.w3.org/Graphics/SVG/1.1/DTD/svg11.dtd">
<!-- Generated by graphviz version 12.2.1 (20241206.2353)
 -->
<!-- Title: http2_architecture Pages: 1 -->
<svg width="1746pt" height="567pt"
 viewBox="0.00 0.00 1745.50 567.11" xmlns="http://www.w3.org/2000/svg" xmlns:xlink="http://www.w3.org/1999/xlink">
<g id="graph0" class="graph" transform="scale(1 1) rotate(0) translate(4 563.11)">
<title>http2_architecture</title>
<polygon fill="white" stroke="none" points="-4,4 -4,-563.11 1741.5,-563.11 1741.5,4 -4,4"/>
<g id="clust1" class="cluster">
<title>cluster_toplevel</title>
<path fill="none" stroke="#4a90d9" stroke-dasharray="5,2" d="M675.5,-352.25C675.5,-352.25 808.5,-352.25 808.5,-352.25 814.5,-352.25 820.5,-358.25 820.5,-364.25 820.5,-364.25 820.5,-538.81 820.5,-538.81 820.5,-544.81 814.5,-550.81 808.5,-550.81 808.5,-550.81 675.5,-550.81 675.5,-550.81 669.5,-550.81 663.5,-544.81 663.5,-538.81 663.5,-538.81 663.5,-364.25 663.5,-364.25 663.5,-358.25 669.5,-352.25 675.5,-352.25"/>
<text text-anchor="middle" x="742" y="-533.51" font-family="Helvetica,sans-Serif" font-size="14.00" fill="#4a90d9">lib/http2.lisp (client API)</text>
</g>
<g id="clust2" class="cluster">
<title>cluster_session</title>
<path fill="none" stroke="#2ecc71" stroke-dasharray="5,2" d="M681.5,-84.25C681.5,-84.25 1340.5,-84.25 1340.5,-84.25 1346.5,-84.25 1352.5,-90.25 1352.5,-96.25 1352.5,-96.25 1352.5,-298.25 1352.5,-298.25 1352.5,-304.25 1346.5,-310.25 1340.5,-310.25 1340.5,-310.25 681.5,-310.25 681.5,-310.25 675.5,-310.25 669.5,-304.25 669.5,-298.25 669.5,-298.25 669.5,-96.25 669.5,-96.25 669.5,-90.25 675.5,-84.25 681.5,-84.25"/>
<text text-anchor="middle" x="1011" y="-292.95" font-family="Helvetica,sans-Serif" font-size="14.00" fill="#2ecc71">http2/session.lisp (core)</text>
</g>
<g id="clust3" class="cluster">
<title>cluster_server</title>
<path fill="none" stroke="#e67e22" stroke-dasharray="5,2" d="M845.5,-360.12C845.5,-360.12 1097.5,-360.12 1097.5,-360.12 1103.5,-360.12 1109.5,-366.12 1109.5,-372.12 1109.5,-372.12 1109.5,-530.93 1109.5,-530.93 1109.5,-536.93 1103.5,-542.93 1097.5,-542.93 1097.5,-542.93 845.5,-542.93 845.5,-542.93 839.5,-542.93 833.5,-536.93 833.5,-530.93 833.5,-530.93 833.5,-372.12 833.5,-372.12 833.5,-366.12 839.5,-360.12 845.5,-360.12"/>
<text text-anchor="middle" x="971.5" y="-525.63" font-family="Helvetica,sans-Serif" font-size="14.00" fill="#e67e22">http2/server.lisp</text>
</g>
<g id="clust4" class="cluster">
<title>cluster_legend</title>
<path fill="none" stroke="#95a5a6" stroke-dasharray="5,2" d="M1129.5,-455.5C1129.5,-455.5 1717.5,-455.5 1717.5,-455.5 1723.5,-455.5 1729.5,-461.5 1729.5,-467.5 1729.5,-467.5 1729.5,-539.11 1729.5,-539.11 1729.5,-545.11 1723.5,-551.11 1717.5,-551.11 1717.5,-551.11 1129.5,-551.11 1129.5,-551.11 1123.5,-551.11 1117.5,-545.11 1117.5,-539.11 1117.5,-539.11 1117.5,-467.5 1117.5,-467.5 1117.5,-461.5 1123.5,-455.5 1129.5,-455.5"/>
<text text-anchor="middle" x="1423.5" y="-533.81" font-family="Helvetica,sans-Serif" font-size="14.00" fill="#95a5a6">Per&#45;connection fibers</text>
</g>
<!-- h2_connect -->
<g id="node1" class="node">
<title>h2_connect</title>
<path fill="#b3d9ff" stroke="black" d="M770.88,-415.5C770.88,-415.5 712.12,-415.5 712.12,-415.5 706.12,-415.5 700.12,-409.5 700.12,-403.5 700.12,-403.5 700.12,-372.25 700.12,-372.25 700.12,-366.25 706.12,-360.25 712.12,-360.25 712.12,-360.25 770.88,-360.25 770.88,-360.25 776.88,-360.25 782.88,-366.25 782.88,-372.25 782.88,-372.25 782.88,-403.5 782.88,-403.5 782.88,-409.5 776.88,-415.5 770.88,-415.5"/>
<text text-anchor="middle" x="741.5" y="-398.2" font-family="Helvetica,sans-Serif" font-size="14.00">h2&#45;connect</text>
<text text-anchor="middle" x="741.5" y="-382.45" font-family="Helvetica,sans-Serif" font-size="14.00">h2&#45;send</text>
<text text-anchor="middle" x="741.5" y="-366.7" font-family="Helvetica,sans-Serif" font-size="14.00">h2&#45;close</text>
</g>
<!-- make_session -->
<g id="node3" class="node">
<title>make_session</title>
<path fill="#b3e6cc" stroke="black" d="M765.5,-261C765.5,-261 689.5,-261 689.5,-261 683.5,-261 677.5,-255 677.5,-249 677.5,-249 677.5,-237 677.5,-237 677.5,-231 683.5,-225 689.5,-225 689.5,-225 765.5,-225 765.5,-225 771.5,-225 777.5,-231 777.5,-237 777.5,-237 777.5,-249 777.5,-249 777.5,-255 771.5,-261 765.5,-261"/>
<text text-anchor="middle" x="727.5" y="-237.57" font-family="Helvetica,sans-Serif" font-size="14.00">make&#45;session</text>
</g>
<!-- h2_connect&#45;&gt;make_session -->
<g id="edge1" class="edge">
<title>h2_connect&#45;&gt;make_session</title>
<path fill="none" stroke="black" d="M738.87,-360C736.42,-335.02 732.78,-297.93 730.29,-272.45"/>
<polygon fill="black" stroke="black" points="733.8,-272.43 729.34,-262.82 726.84,-273.12 733.8,-272.43"/>
<text text-anchor="middle" x="753.1" y="-326.75" font-family="Helvetica,sans-Serif" font-size="10.00">creates</text>
</g>
<!-- read_loop -->
<g id="node4" class="node">
<title>read_loop</title>
<path fill="#80d4a8" stroke="black" d="M1332.25,-270.62C1332.25,-270.62 1194.75,-270.62 1194.75,-270.62 1188.75,-270.62 1182.75,-264.62 1182.75,-258.62 1182.75,-258.62 1182.75,-227.38 1182.75,-227.38 1182.75,-221.38 1188.75,-215.38 1194.75,-215.38 1194.75,-215.38 1332.25,-215.38 1332.25,-215.38 1338.25,-215.38 1344.25,-221.38 1344.25,-227.38 1344.25,-227.38 1344.25,-258.62 1344.25,-258.62 1344.25,-264.62 1338.25,-270.62 1332.25,-270.62"/>
<text text-anchor="middle" x="1263.5" y="-253.32" font-family="Helvetica,sans-Serif" font-size="14.00">read&#45;loop</text>
<text text-anchor="middle" x="1263.5" y="-237.57" font-family="Helvetica,sans-Serif" font-size="14.00">(shared dispatch)</text>
<text text-anchor="middle" x="1263.5" y="-221.82" font-family="Helvetica,sans-Serif" font-size="14.00">on&#45;headers / on&#45;goaway</text>
</g>
<!-- h2_connect&#45;&gt;read_loop -->
<g id="edge2" class="edge">
<title>h2_connect&#45;&gt;read_loop</title>
<path fill="none" stroke="black" d="M783.25,-367.69C797.63,-361.83 814.01,-355.96 829.5,-352.25 875.09,-341.34 888.04,-348.51 934.5,-342.25 995.98,-333.97 1010.45,-326.03 1072,-318.25 1094.45,-315.41 1152.3,-318.15 1173.5,-310.25 1192.8,-303.06 1211.57,-290.44 1226.93,-278.13"/>
<polygon fill="black" stroke="black" points="1228.94,-281.01 1234.4,-271.93 1224.47,-275.63 1228.94,-281.01"/>
<text text-anchor="middle" x="1108.75" y="-332.75" font-family="Helvetica,sans-Serif" font-size="10.00">starts</text>
<text text-anchor="middle" x="1108.75" y="-320.75" font-family="Helvetica,sans-Serif" font-size="10.00">(client callbacks)</text>
</g>
<!-- writer_loop -->
<g id="node5" class="node">
<title>writer_loop</title>
<path fill="#80d4a8" stroke="black" d="M931.88,-262.75C931.88,-262.75 807.12,-262.75 807.12,-262.75 801.12,-262.75 795.12,-256.75 795.12,-250.75 795.12,-250.75 795.12,-235.25 795.12,-235.25 795.12,-229.25 801.12,-223.25 807.12,-223.25 807.12,-223.25 931.88,-223.25 931.88,-223.25 937.88,-223.25 943.88,-229.25 943.88,-235.25 943.88,-235.25 943.88,-250.75 943.88,-250.75 943.88,-256.75 937.88,-262.75 931.88,-262.75"/>
<text text-anchor="middle" x="869.5" y="-245.45" font-family="Helvetica,sans-Serif" font-size="14.00">writer&#45;loop</text>
<text text-anchor="middle" x="869.5" y="-229.7" font-family="Helvetica,sans-Serif" font-size="14.00">(@shutting&#45;down flag)</text>
</g>
<!-- h2_connect&#45;&gt;writer_loop -->
<g id="edge3" class="edge">
<title>h2_connect&#45;&gt;writer_loop</title>
<path fill="none" stroke="black" d="M765.58,-360C788.25,-334.69 822.05,-296.96 844.9,-271.46"/>
<polygon fill="black" stroke="black" points="847.41,-273.9 851.47,-264.12 842.19,-269.23 847.41,-273.9"/>
<text text-anchor="middle" x="814.04" y="-326.75" font-family="Helvetica,sans-Serif" font-size="10.00">starts</text>
</g>
<!-- transport -->
<g id="node11" class="node">
<title>transport</title>
<path fill="#d5dbf0" stroke="black" d="M115,-139.62C115,-139.62 12,-139.62 12,-139.62 6,-139.62 0,-133.62 0,-127.62 0,-127.62 0,-96.38 0,-96.38 0,-90.38 6,-84.38 12,-84.38 12,-84.38 115,-84.38 115,-84.38 121,-84.38 127,-90.38 127,-96.38 127,-96.38 127,-127.62 127,-127.62 127,-133.62 121,-139.62 115,-139.62"/>
<text text-anchor="middle" x="63.5" y="-122.33" font-family="Helvetica,sans-Serif" font-size="14.00">http2/transport.lisp</text>
<text text-anchor="middle" x="63.5" y="-106.58" font-family="Helvetica,sans-Serif" font-size="14.00">tcp&#45;transport</text>
<text text-anchor="middle" x="63.5" y="-90.83" font-family="Helvetica,sans-Serif" font-size="14.00">tls&#45;transport</text>
</g>
<!-- h2_connect&#45;&gt;transport -->
<g id="edge4" class="edge">
<title>h2_connect&#45;&gt;transport</title>
<path fill="none" stroke="black" d="M699.92,-385.08C611.91,-380.81 409.72,-368.39 346.5,-342.25 240.23,-298.31 142.12,-201.09 94.21,-148.48"/>
<polygon fill="black" stroke="black" points="96.99,-146.33 87.7,-141.25 91.79,-151.02 96.99,-146.33"/>
<text text-anchor="middle" x="299.17" y="-239.5" font-family="Helvetica,sans-Serif" font-size="10.00">creates</text>
</g>
<!-- url_parse -->
<g id="node2" class="node">
<title>url_parse</title>
<path fill="#d9ecff" stroke="black" d="M781.38,-519.06C781.38,-519.06 701.62,-519.06 701.62,-519.06 695.62,-519.06 689.62,-513.06 689.62,-507.06 689.62,-507.06 689.62,-475.81 689.62,-475.81 689.62,-469.81 695.62,-463.81 701.62,-463.81 701.62,-463.81 781.38,-463.81 781.38,-463.81 787.38,-463.81 793.38,-469.81 793.38,-475.81 793.38,-475.81 793.38,-507.06 793.38,-507.06 793.38,-513.06 787.38,-519.06 781.38,-519.06"/>
<text text-anchor="middle" x="741.5" y="-501.76" font-family="Helvetica,sans-Serif" font-size="14.00">parse&#45;url</text>
<text text-anchor="middle" x="741.5" y="-486.01" font-family="Helvetica,sans-Serif" font-size="14.00">resolve&#45;host</text>
<text text-anchor="middle" x="741.5" y="-470.26" font-family="Helvetica,sans-Serif" font-size="14.00">open&#45;transport</text>
</g>
<!-- url_parse&#45;&gt;h2_connect -->
<!-- apply_settings -->
<g id="node7" class="node">
<title>apply_settings</title>
<path fill="#b3e6cc" stroke="black" d="M1332.62,-131.75C1332.62,-131.75 1164.38,-131.75 1164.38,-131.75 1158.38,-131.75 1152.38,-125.75 1152.38,-119.75 1152.38,-119.75 1152.38,-104.25 1152.38,-104.25 1152.38,-98.25 1158.38,-92.25 1164.38,-92.25 1164.38,-92.25 1332.62,-92.25 1332.62,-92.25 1338.62,-92.25 1344.62,-98.25 1344.62,-104.25 1344.62,-104.25 1344.62,-119.75 1344.62,-119.75 1344.62,-125.75 1338.62,-131.75 1332.62,-131.75"/>
<text text-anchor="middle" x="1248.5" y="-114.45" font-family="Helvetica,sans-Serif" font-size="14.00">apply&#45;remote&#45;settings</text>
<text text-anchor="middle" x="1248.5" y="-98.7" font-family="Helvetica,sans-Serif" font-size="14.00">(validates + adjusts windows)</text>
</g>
<!-- read_loop&#45;&gt;apply_settings -->
<g id="edge14" class="edge">
<title>read_loop&#45;&gt;apply_settings</title>
<path fill="none" stroke="black" d="M1260.36,-214.96C1257.92,-194.01 1254.55,-165 1252.02,-143.28"/>
<polygon fill="black" stroke="black" points="1255.52,-143.09 1250.89,-133.56 1248.57,-143.9 1255.52,-143.09"/>
</g>
<!-- handler -->
<g id="node10" class="node">
<title>handler</title>
<path fill="#fae5d3" stroke="black" d="M1089.5,-511.18C1089.5,-511.18 965.5,-511.18 965.5,-511.18 959.5,-511.18 953.5,-505.18 953.5,-499.18 953.5,-499.18 953.5,-483.68 953.5,-483.68 953.5,-477.68 959.5,-471.68 965.5,-471.68 965.5,-471.68 1089.5,-471.68 1089.5,-471.68 1095.5,-471.68 1101.5,-477.68 1101.5,-483.68 1101.5,-483.68 1101.5,-499.18 1101.5,-499.18 1101.5,-505.18 1095.5,-511.18 1089.5,-511.18"/>
<text text-anchor="middle" x="1027.5" y="-493.88" font-family="Helvetica,sans-Serif" font-size="14.00">handle&#45;server&#45;request</text>
<text text-anchor="middle" x="1027.5" y="-478.13" font-family="Helvetica,sans-Serif" font-size="14.00">(per&#45;stream fiber)</text>
</g>
<!-- read_loop&#45;&gt;handler -->
<g id="edge10" class="edge">
<title>read_loop&#45;&gt;handler</title>
<path fill="none" stroke="#e67e22" stroke-dasharray="5,2" d="M1265.39,-271.04C1265.57,-292 1262.9,-320.96 1249.5,-342.25 1211.85,-402.05 1140.28,-443.19 1088.56,-466.67"/>
<polygon fill="#e67e22" stroke="#e67e22" points="1087.28,-463.41 1079.56,-470.67 1090.12,-469.81 1087.28,-463.41"/>
<text text-anchor="middle" x="1264.53" y="-390.38" font-family="Helvetica,sans-Serif" font-size="10.00">on&#45;headers</text>
<text text-anchor="middle" x="1264.53" y="-378.38" font-family="Helvetica,sans-Serif" font-size="10.00">(server)</text>
</g>
<!-- stream -->
<g id="node12" class="node">
<title>stream</title>
<path fill="#f9e79f" stroke="black" d="M649.62,-147.5C649.62,-147.5 517.38,-147.5 517.38,-147.5 511.38,-147.5 505.38,-141.5 505.38,-135.5 505.38,-135.5 505.38,-88.5 505.38,-88.5 505.38,-82.5 511.38,-76.5 517.38,-76.5 517.38,-76.5 649.62,-76.5 649.62,-76.5 655.62,-76.5 661.62,-82.5 661.62,-88.5 661.62,-88.5 661.62,-135.5 661.62,-135.5 661.62,-141.5 655.62,-147.5 649.62,-147.5"/>
<text text-anchor="middle" x="583.5" y="-130.2" font-family="Helvetica,sans-Serif" font-size="14.00">http2/stream.lisp</text>
<text text-anchor="middle" x="583.5" y="-114.45" font-family="Helvetica,sans-Serif" font-size="14.00">state machine (FSM)</text>
<text text-anchor="middle" x="583.5" y="-98.7" font-family="Helvetica,sans-Serif" font-size="14.00">flow control</text>
<text text-anchor="middle" x="583.5" y="-82.95" font-family="Helvetica,sans-Serif" font-size="14.00">consume/apply window</text>
</g>
<!-- read_loop&#45;&gt;stream -->
<g id="edge13" class="edge">
<title>read_loop&#45;&gt;stream</title>
<path fill="none" stroke="black" d="M1221.51,-215C1209.62,-207.04 1196.77,-198.14 1185.25,-189.5 1171.93,-179.52 1172.04,-171.46 1156.5,-165.5 1057.84,-127.67 790.13,-168.26 673.05,-148.8"/>
<polygon fill="black" stroke="black" points="673.84,-145.39 663.35,-146.94 672.51,-152.26 673.84,-145.39"/>
<text text-anchor="middle" x="1217.88" y="-180" font-family="Helvetica,sans-Serif" font-size="10.00">transition</text>
<text text-anchor="middle" x="1217.88" y="-168" font-family="Helvetica,sans-Serif" font-size="10.00">window&#45;update</text>
</g>
<!-- frame -->
<g id="node13" class="node">
<title>frame</title>
<path fill="#fadbd8" stroke="black" d="M290,-147.5C290,-147.5 157,-147.5 157,-147.5 151,-147.5 145,-141.5 145,-135.5 145,-135.5 145,-88.5 145,-88.5 145,-82.5 151,-76.5 157,-76.5 157,-76.5 290,-76.5 290,-76.5 296,-76.5 302,-82.5 302,-88.5 302,-88.5 302,-135.5 302,-135.5 302,-141.5 296,-147.5 290,-147.5"/>
<text text-anchor="middle" x="223.5" y="-130.2" font-family="Helvetica,sans-Serif" font-size="14.00">http2/frame.lisp</text>
<text text-anchor="middle" x="223.5" y="-114.45" font-family="Helvetica,sans-Serif" font-size="14.00">codec (encode/decode)</text>
<text text-anchor="middle" x="223.5" y="-98.7" font-family="Helvetica,sans-Serif" font-size="14.00">frame builders</text>
<text text-anchor="middle" x="223.5" y="-82.95" font-family="Helvetica,sans-Serif" font-size="14.00">parse&#45;settings</text>
</g>
<!-- read_loop&#45;&gt;frame -->
<g id="edge11" class="edge">
<title>read_loop&#45;&gt;frame</title>
<path fill="none" stroke="black" d="M1200.33,-214.99C1191.45,-212.02 1182.34,-209.39 1173.5,-207.5 1103.09,-192.43 915.25,-219.95 850,-189.5 836.75,-183.32 840.81,-171.54 827.5,-165.5 777.62,-142.85 404.27,-157.71 313.59,-147.31"/>
<polygon fill="black" stroke="black" points="314.24,-143.87 303.83,-145.81 313.18,-150.79 314.24,-143.87"/>
<text text-anchor="middle" x="873.25" y="-174" font-family="Helvetica,sans-Serif" font-size="10.00">read&#45;frame</text>
</g>
<!-- hpack -->
<g id="node14" class="node">
<title>hpack</title>
<path fill="#e8daef" stroke="black" d="M475.25,-139.62C475.25,-139.62 331.75,-139.62 331.75,-139.62 325.75,-139.62 319.75,-133.62 319.75,-127.62 319.75,-127.62 319.75,-96.38 319.75,-96.38 319.75,-90.38 325.75,-84.38 331.75,-84.38 331.75,-84.38 475.25,-84.38 475.25,-84.38 481.25,-84.38 487.25,-90.38 487.25,-96.38 487.25,-96.38 487.25,-127.62 487.25,-127.62 487.25,-133.62 481.25,-139.62 475.25,-139.62"/>
<text text-anchor="middle" x="403.5" y="-122.33" font-family="Helvetica,sans-Serif" font-size="14.00">http2/hpack.lisp</text>
<text text-anchor="middle" x="403.5" y="-106.58" font-family="Helvetica,sans-Serif" font-size="14.00">HPACK encoder/decoder</text>
<text text-anchor="middle" x="403.5" y="-90.83" font-family="Helvetica,sans-Serif" font-size="14.00">dynamic tables</text>
</g>
<!-- read_loop&#45;&gt;hpack -->
<g id="edge12" class="edge">
<title>read_loop&#45;&gt;hpack</title>
<path fill="none" stroke="black" d="M1198.76,-214.88C1190.37,-212.04 1181.8,-209.48 1173.5,-207.5 1097.67,-189.39 1068.86,-224.13 999,-189.5 985.9,-183.01 989.8,-171.56 976.5,-165.5 927.93,-143.37 548.85,-157.91 496.5,-147.5 490.89,-146.38 485.17,-144.98 479.47,-143.37"/>
<polygon fill="black" stroke="black" points="480.57,-140.05 469.99,-140.51 478.55,-146.75 480.57,-140.05"/>
<text text-anchor="middle" x="1014.75" y="-174" font-family="Helvetica,sans-Serif" font-size="10.00">decode</text>
</g>
<!-- writer_loop&#45;&gt;transport -->
<g id="edge16" class="edge">
<title>writer_loop&#45;&gt;transport</title>
<path fill="none" stroke="black" d="M831.15,-222.8C817.4,-216.8 801.58,-210.88 786.5,-207.5 702.7,-188.74 479.73,-222.62 400.5,-189.5 385.99,-183.43 388.92,-171.77 374.5,-165.5 276.82,-123.01 238.42,-174.99 135.5,-147.5 131.95,-146.55 128.37,-145.43 124.79,-144.18"/>
<polygon fill="black" stroke="black" points="126.13,-140.95 115.54,-140.64 123.63,-147.49 126.13,-140.95"/>
<text text-anchor="middle" x="427.5" y="-174" font-family="Helvetica,sans-Serif" font-size="10.00">write + flush</text>
</g>
<!-- writer_loop&#45;&gt;frame -->
<g id="edge15" class="edge">
<title>writer_loop&#45;&gt;frame</title>
<path fill="none" stroke="black" d="M829.3,-222.76C815.95,-217.06 800.82,-211.32 786.5,-207.5 751,-198.03 494.96,-170.05 458.5,-165.5 396.22,-157.72 376.75,-163.2 313.4,-148.02"/>
<polygon fill="black" stroke="black" points="314.42,-144.66 303.87,-145.65 312.73,-151.45 314.42,-144.66"/>
<text text-anchor="middle" x="682.04" y="-174" font-family="Helvetica,sans-Serif" font-size="10.00">write&#45;frame</text>
</g>
<!-- send_helpers -->
<g id="node6" class="node">
<title>send_helpers</title>
<path fill="#b3e6cc" stroke="black" d="M1152.88,-278.5C1152.88,-278.5 974.12,-278.5 974.12,-278.5 968.12,-278.5 962.12,-272.5 962.12,-266.5 962.12,-266.5 962.12,-219.5 962.12,-219.5 962.12,-213.5 968.12,-207.5 974.12,-207.5 974.12,-207.5 1152.88,-207.5 1152.88,-207.5 1158.88,-207.5 1164.88,-213.5 1164.88,-219.5 1164.88,-219.5 1164.88,-266.5 1164.88,-266.5 1164.88,-272.5 1158.88,-278.5 1152.88,-278.5"/>
<text text-anchor="middle" x="1063.5" y="-261.2" font-family="Helvetica,sans-Serif" font-size="14.00">encode&#45;and&#45;send&#45;headers</text>
<text text-anchor="middle" x="1063.5" y="-245.45" font-family="Helvetica,sans-Serif" font-size="14.00">send&#45;data&#45;with&#45;flow&#45;control</text>
<text text-anchor="middle" x="1063.5" y="-229.7" font-family="Helvetica,sans-Serif" font-size="14.00">send&#45;frame / send&#45;goaway</text>
<text text-anchor="middle" x="1063.5" y="-213.95" font-family="Helvetica,sans-Serif" font-size="14.00">send&#45;settings / send&#45;rst&#45;stream</text>
</g>
<!-- send_helpers&#45;&gt;stream -->
<g id="edge19" class="edge">
<title>send_helpers&#45;&gt;stream</title>
<path fill="none" stroke="black" d="M1058.92,-207.08C1055.03,-191.8 1047.83,-175.19 1034.5,-165.5 1003.37,-142.87 741.47,-154.85 672.89,-148.22"/>
<polygon fill="black" stroke="black" points="673.77,-144.81 663.37,-146.85 672.77,-151.74 673.77,-144.81"/>
<text text-anchor="middle" x="1102.73" y="-174" font-family="Helvetica,sans-Serif" font-size="10.00">consume&#45;send&#45;window</text>
</g>
<!-- send_helpers&#45;&gt;frame -->
<g id="edge18" class="edge">
<title>send_helpers&#45;&gt;frame</title>
<path fill="none" stroke="black" d="M961.79,-209.51C958.67,-208.79 955.57,-208.12 952.5,-207.5 872.18,-191.25 848.53,-209.26 769,-189.5 741.73,-182.72 737.94,-171.55 710.5,-165.5 540.29,-127.95 486.69,-182.49 313.38,-147.84"/>
<polygon fill="black" stroke="black" points="314.32,-144.46 303.82,-145.86 312.9,-151.32 314.32,-144.46"/>
<text text-anchor="middle" x="798.25" y="-174" font-family="Helvetica,sans-Serif" font-size="10.00">make&#45;*&#45;frame</text>
</g>
<!-- send_helpers&#45;&gt;hpack -->
<g id="edge17" class="edge">
<title>send_helpers&#45;&gt;hpack</title>
<path fill="none" stroke="black" d="M982.48,-207.11C969.86,-201.38 957.02,-195.39 945,-189.5 924.82,-179.61 922.16,-171.48 900.5,-165.5 813.88,-141.57 584.58,-165.34 496.5,-147.5 490.95,-146.37 485.28,-144.97 479.63,-143.37"/>
<polygon fill="black" stroke="black" points="480.84,-140.08 470.26,-140.53 478.81,-146.78 480.84,-140.08"/>
<text text-anchor="middle" x="960.75" y="-174" font-family="Helvetica,sans-Serif" font-size="10.00">encode</text>
</g>
<!-- h2_serve -->
<g id="node8" class="node">
<title>h2_serve</title>
<path fill="#f5cba7" stroke="black" d="M923.5,-511.18C923.5,-511.18 853.5,-511.18 853.5,-511.18 847.5,-511.18 841.5,-505.18 841.5,-499.18 841.5,-499.18 841.5,-483.68 841.5,-483.68 841.5,-477.68 847.5,-471.68 853.5,-471.68 853.5,-471.68 923.5,-471.68 923.5,-471.68 929.5,-471.68 935.5,-477.68 935.5,-483.68 935.5,-483.68 935.5,-499.18 935.5,-499.18 935.5,-505.18 929.5,-511.18 923.5,-511.18"/>
<text text-anchor="middle" x="888.5" y="-493.88" font-family="Helvetica,sans-Serif" font-size="14.00">h2&#45;serve</text>
<text text-anchor="middle" x="888.5" y="-478.13" font-family="Helvetica,sans-Serif" font-size="14.00">(accept loop)</text>
</g>
<!-- server_conn -->
<g id="node9" class="node">
<title>server_conn</title>
<path fill="#f5cba7" stroke="black" d="M993.38,-407.62C993.38,-407.62 853.62,-407.62 853.62,-407.62 847.62,-407.62 841.62,-401.62 841.62,-395.62 841.62,-395.62 841.62,-380.12 841.62,-380.12 841.62,-374.12 847.62,-368.12 853.62,-368.12 853.62,-368.12 993.38,-368.12 993.38,-368.12 999.38,-368.12 1005.38,-374.12 1005.38,-380.12 1005.38,-380.12 1005.38,-395.62 1005.38,-395.62 1005.38,-401.62 999.38,-407.62 993.38,-407.62"/>
<text text-anchor="middle" x="923.5" y="-390.32" font-family="Helvetica,sans-Serif" font-size="14.00">server&#45;connection</text>
<text text-anchor="middle" x="923.5" y="-374.57" font-family="Helvetica,sans-Serif" font-size="14.00">(handshake + read&#45;loop)</text>
</g>
<!-- h2_serve&#45;&gt;server_conn -->
<g id="edge6" class="edge">
<title>h2_serve&#45;&gt;server_conn</title>
<path fill="none" stroke="black" d="M895.08,-471.33C900.22,-456.43 907.44,-435.49 913.31,-418.43"/>
<polygon fill="black" stroke="black" points="916.5,-419.92 916.45,-409.32 909.89,-417.64 916.5,-419.92"/>
<text text-anchor="middle" x="939.97" y="-436" font-family="Helvetica,sans-Serif" font-size="10.00">per connection</text>
</g>
<!-- server_conn&#45;&gt;read_loop -->
<g id="edge7" class="edge">
<title>server_conn&#45;&gt;read_loop</title>
<path fill="none" stroke="black" d="M968.67,-367.75C984.48,-361.82 1002.52,-355.89 1019.5,-352.25 1047.83,-346.17 1123.34,-354.71 1149.5,-342.25 1162.77,-335.93 1161.47,-328.24 1172.25,-318.25 1187.15,-304.44 1204.25,-290.15 1219.59,-277.84"/>
<polygon fill="black" stroke="black" points="1221.55,-280.74 1227.2,-271.78 1217.2,-275.27 1221.55,-280.74"/>
<text text-anchor="middle" x="1210.88" y="-332.75" font-family="Helvetica,sans-Serif" font-size="10.00">starts</text>
<text text-anchor="middle" x="1210.88" y="-320.75" font-family="Helvetica,sans-Serif" font-size="10.00">(server callbacks)</text>
</g>
<!-- server_conn&#45;&gt;writer_loop -->
<g id="edge8" class="edge">
<title>server_conn&#45;&gt;writer_loop</title>
<path fill="none" stroke="black" d="M916.33,-367.9C907.21,-343.78 891.37,-301.86 880.66,-273.54"/>
<polygon fill="black" stroke="black" points="884.05,-272.58 877.24,-264.47 877.5,-275.06 884.05,-272.58"/>
<text text-anchor="middle" x="918.41" y="-326.75" font-family="Helvetica,sans-Serif" font-size="10.00">starts</text>
</g>
<!-- server_conn&#45;&gt;transport -->
<g id="edge9" class="edge">
<title>server_conn&#45;&gt;transport</title>
<path fill="none" stroke="black" d="M875.81,-367.7C859.74,-361.91 841.55,-356.09 824.5,-352.25 783.51,-343.03 771.92,-349.31 730.5,-342.25 541,-309.93 500.98,-270.9 319.5,-207.5 238.3,-179.13 215.35,-179.49 135.5,-147.5 133.06,-146.52 130.58,-145.5 128.09,-144.44"/>
<polygon fill="black" stroke="black" points="129.76,-141.35 119.19,-140.56 126.96,-147.77 129.76,-141.35"/>
<text text-anchor="middle" x="623.53" y="-239.5" font-family="Helvetica,sans-Serif" font-size="10.00">wraps TCP/TLS</text>
</g>
<!-- handler&#45;&gt;send_helpers -->
<g id="edge20" class="edge">
<title>handler&#45;&gt;send_helpers</title>
<path fill="none" stroke="black" d="M1030.27,-471.5C1035.89,-432.99 1048.81,-344.56 1056.78,-289.99"/>
<polygon fill="black" stroke="black" points="1060.2,-290.78 1058.19,-280.38 1053.28,-289.77 1060.2,-290.78"/>
<text text-anchor="middle" x="1079.17" y="-384.38" font-family="Helvetica,sans-Serif" font-size="10.00">send response</text>
</g>
<!-- huffman -->
<g id="node15" class="node">
<title>huffman</title>
<path fill="#f2e4f9" stroke="black" d="M453.12,-39.5C453.12,-39.5 353.88,-39.5 353.88,-39.5 347.88,-39.5 341.88,-33.5 341.88,-27.5 341.88,-27.5 341.88,-12 341.88,-12 341.88,-6 347.88,0 353.88,0 353.88,0 453.12,0 453.12,0 459.12,0 465.12,-6 465.12,-12 465.12,-12 465.12,-27.5 465.12,-27.5 465.12,-33.5 459.12,-39.5 453.12,-39.5"/>
<text text-anchor="middle" x="403.5" y="-22.2" font-family="Helvetica,sans-Serif" font-size="14.00">http2/huffman.lisp</text>
<text text-anchor="middle" x="403.5" y="-6.45" font-family="Helvetica,sans-Serif" font-size="14.00">Huffman codec</text>
</g>
<!-- hpack&#45;&gt;huffman -->
<g id="edge21" class="edge">
<title>hpack&#45;&gt;huffman</title>
<path fill="none" stroke="black" d="M403.5,-83.92C403.5,-73.59 403.5,-61.74 403.5,-51.11"/>
<polygon fill="black" stroke="black" points="407,-51.3 403.5,-41.3 400,-51.3 407,-51.3"/>
</g>
<!-- legend_reader -->
<g id="node16" class="node">
<title>legend_reader</title>
<ellipse fill="#80d4a8" stroke="black" cx="1213.5" cy="-491.43" rx="88.21" ry="27.93"/>
<text text-anchor="middle" x="1213.5" y="-493.88" font-family="Helvetica,sans-Serif" font-size="14.00">Reader fiber</text>
<text text-anchor="middle" x="1213.5" y="-478.13" font-family="Helvetica,sans-Serif" font-size="14.00">(1 per connection)</text>
</g>
<!-- legend_writer -->
<g id="node17" class="node">
<title>legend_writer</title>
<ellipse fill="#80d4a8" stroke="black" cx="1407.5" cy="-491.43" rx="88.21" ry="27.93"/>
<text text-anchor="middle" x="1407.5" y="-493.88" font-family="Helvetica,sans-Serif" font-size="14.00">Writer fiber</text>
<text text-anchor="middle" x="1407.5" y="-478.13" font-family="Helvetica,sans-Serif" font-size="14.00">(1 per connection)</text>
</g>
<!-- legend_handler -->
<g id="node18" class="node">
<title>legend_handler</title>
<ellipse fill="#fae5d3" stroke="black" cx="1617.5" cy="-491.43" rx="103.59" ry="27.93"/>
<text text-anchor="middle" x="1617.5" y="-493.88" font-family="Helvetica,sans-Serif" font-size="14.00">Handler fibers</text>
<text text-anchor="middle" x="1617.5" y="-478.13" font-family="Helvetica,sans-Serif" font-size="14.00">(1 per stream, server)</text>
</g>
</g>
</svg>
