<svg xmlns="http://www.w3.org/2000/svg" viewBox="0 0 512 512">
  <path d="M 397.9,60 L 393.3,69 L 388.7,78.2 L 384,87.6 L 379.2,97.1 L 374.3,106.7 L 369.3,116.5 L 364.2,126.4 L 359,136.3 L 353.7,146.4 L 348.2,156.5 L 342.6,166.7 L 336.9,176.9 L 331.1,187.2 L 325.1,197.5 L 318.9,207.8 L 312.6,218.1 L 306.2,228.4 L 299.6,238.6 L 292.9,248.8 L 286,259 L 279,269.1 L 271.8,279.2 L 264.5,289.2 L 257.1,299.1 L 249.6,308.9 L 241.9,318.6 L 234.2,328.3 L 226.3,337.8 L 218.4,347.2 L 210.3,356.4 L 202.2,365.6 L 194.1,374.6 L 185.8,383.4 L 177.6,392.2 L 169.3,400.7 L 161,409.1 L 152.6,417.4 L 144.3,425.4 L 136.1,433.3 L 127.8,441.1" fill="none" stroke="#f5d020" stroke-width="8" stroke-linecap="round" opacity="1"/>
  <path d="M 395.2,58 L 390.2,66.7 L 385.1,75.5 L 379.9,84.5 L 374.6,93.7 L 369.3,103.1 L 363.8,112.5 L 358.3,122.1 L 352.6,131.8 L 346.9,141.6 L 341.1,151.5 L 335.1,161.5 L 329.1,171.5 L 322.9,181.6 L 316.7,191.7 L 310.3,201.9 L 303.8,212.1 L 297.3,222.3 L 290.6,232.5 L 283.8,242.6 L 276.9,252.8 L 269.9,262.9 L 262.8,273 L 255.6,283.1 L 248.4,293.1 L 241,303 L 233.6,312.8 L 226.1,322.6 L 218.5,332.3 L 210.9,341.9 L 203.2,351.4 L 195.5,360.8 L 187.7,370 L 179.9,379.2 L 172.1,388.2 L 164.2,397 L 156.4,405.7 L 148.6,414.3 L 140.8,422.7 L 133,431 L 125.2,439" fill="none" stroke="#e8a215" stroke-width="8" stroke-linecap="round" opacity="1"/>
  <path d="M 392.6,56 L 387.1,64.3 L 381.5,72.8 L 375.8,81.5 L 370,90.4 L 364.2,99.4 L 358.3,108.6 L 352.3,117.9 L 346.2,127.3 L 340.1,136.9 L 333.9,146.5 L 327.6,156.3 L 321.2,166.1 L 314.8,176 L 308.3,186 L 301.7,196 L 295.1,206.1 L 288.4,216.2 L 281.6,226.3 L 274.7,236.4 L 267.8,246.6 L 260.9,256.7 L 253.8,266.9 L 246.8,277 L 239.6,287 L 232.5,297.1 L 225.2,307.1 L 218,317 L 210.7,326.9 L 203.4,336.6 L 196,346.3 L 188.7,356 L 181.3,365.5 L 173.9,374.9 L 166.6,384.2 L 159.2,393.3 L 151.8,402.4 L 144.5,411.3 L 137.2,420 L 129.9,428.6 L 122.6,437" fill="none" stroke="#d47020" stroke-width="8" stroke-linecap="round" opacity="1"/>
  <path d="M 390,54 L 384,62 L 377.9,70.2 L 371.7,78.5 L 365.4,87.1 L 359.1,95.8 L 352.8,104.6 L 346.3,113.6 L 339.8,122.8 L 333.3,132.1 L 326.7,141.5 L 320.1,151 L 313.4,160.7 L 306.7,170.4 L 299.9,180.2 L 293.1,190.1 L 286.3,200.1 L 279.5,210.1 L 272.6,220.1 L 265.7,230.2 L 258.8,240.4 L 251.8,250.5 L 244.8,260.7 L 237.9,270.9 L 230.9,281 L 223.9,291.2 L 216.9,301.3 L 209.9,311.4 L 202.9,321.4 L 195.9,331.4 L 188.9,341.3 L 181.9,351.1 L 175,360.9 L 168,370.6 L 161.1,380.2 L 154.2,389.6 L 147.3,399 L 140.4,408.2 L 133.6,417.3 L 126.8,426.2 L 120,435" fill="none" stroke="#c43c1e" stroke-width="8" stroke-linecap="round" opacity="1"/>
  <path d="M 387.4,52 L 380.8,59.6 L 374.2,67.5 L 367.6,75.5 L 360.8,83.7 L 354.1,92.1 L 347.2,100.7 L 340.4,109.4 L 333.4,118.3 L 326.5,127.3 L 319.5,136.5 L 312.6,145.8 L 305.6,155.3 L 298.6,164.8 L 291.6,174.5 L 284.6,184.2 L 277.6,194.1 L 270.6,204 L 263.6,214 L 256.6,224 L 249.7,234.2 L 242.7,244.3 L 235.8,254.5 L 229,264.7 L 222.1,275 L 215.3,285.2 L 208.5,295.5 L 201.8,305.7 L 195.1,315.9 L 188.4,326.1 L 181.8,336.3 L 175.2,346.3 L 168.6,356.4 L 162.1,366.3 L 155.6,376.2 L 149.1,385.9 L 142.7,395.6 L 136.3,405.1 L 130,414.6 L 123.7,423.8 L 117.4,433" fill="none" stroke="#a01818" stroke-width="8" stroke-linecap="round" opacity="1"/>
  <path d="M 384.8,50 L 377.7,57.3 L 370.6,64.8 L 363.5,72.5 L 356.2,80.4 L 349,88.5 L 341.7,96.7 L 334.4,105.2 L 327.1,113.8 L 319.7,122.6 L 312.4,131.5 L 305,140.6 L 297.7,149.8 L 290.4,159.2 L 283.2,168.7 L 276,178.3 L 268.8,188.1 L 261.7,197.9 L 254.6,207.8 L 247.6,217.9 L 240.6,228 L 233.7,238.1 L 226.9,248.4 L 220.1,258.6 L 213.4,269 L 206.7,279.3 L 200.2,289.7 L 193.7,300.1 L 187.3,310.5 L 180.9,320.9 L 174.6,331.2 L 168.4,341.5 L 162.2,351.8 L 156.1,362 L 150.1,372.2 L 144.1,382.2 L 138.1,392.2 L 132.2,402.1 L 126.4,411.8 L 120.6,421.5 L 114.8,431" fill="none" stroke="#551010" stroke-width="8" stroke-linecap="round" opacity="1"/>
  <path d="M 382.1,48 L 374.6,54.9 L 367,62.1 L 359.4,69.5 L 351.7,77 L 343.9,84.8 L 336.2,92.8 L 328.4,100.9 L 320.7,109.3 L 312.9,117.8 L 305.2,126.5 L 297.5,135.4 L 289.9,144.4 L 282.3,153.6 L 274.8,162.9 L 267.4,172.4 L 260,182.1 L 252.8,191.8 L 245.6,201.7 L 238.5,211.7 L 231.5,221.7 L 224.6,231.9 L 217.9,242.2 L 211.2,252.5 L 204.6,262.9 L 198.2,273.4 L 191.8,283.9 L 185.6,294.5 L 179.5,305 L 173.4,315.6 L 167.5,326.2 L 161.6,336.7 L 155.9,347.2 L 150.2,357.7 L 144.6,368.2 L 139,378.5 L 133.6,388.8 L 128.2,399 L 122.8,409.1 L 117.5,419.1 L 112.2,428.9" fill="none" stroke="#1a1a1a" stroke-width="8" stroke-linecap="round" opacity="1"/>
  <path d="M 259.7,230.4 L 256.1,228.2 L 252.4,226 L 248.7,223.7 L 244.8,221.3 L 240.9,218.8 L 237,216.2 L 233.1,213.5 L 229.1,210.8 L 225.1,207.9 L 221,205 L 217,201.9 L 213,198.7 L 208.9,195.4 L 204.9,192 L 200.9,188.5 L 196.9,184.8 L 192.9,181 L 189,177.1 L 185,173.1 L 181.1,169 L 177.2,164.7 L 173.3,160.4 L 169.5,155.9 L 165.6,151.3 L 161.8,146.6 L 158,141.7 L 154.1,136.8 L 150.3,131.8 L 146.5,126.7 L 142.6,121.5 L 138.8,116.3 L 134.9,110.9 L 131,105.5 L 127,100.1 L 123,94.6 L 119,89.1 L 114.9,83.6 L 110.7,78 L 106.4,72.5 L 102.1,66.9" fill="none" stroke="#f5d020" stroke-width="8" stroke-linecap="round" opacity="1"/>
  <path d="M 262.5,228.6 L 259.3,226.1 L 256.1,223.4 L 252.8,220.7 L 249.5,218 L 246,215.1 L 242.5,212.2 L 238.9,209.1 L 235.3,206 L 231.6,202.8 L 227.9,199.5 L 224.1,196.1 L 220.3,192.7 L 216.5,189.1 L 212.7,185.4 L 208.8,181.7 L 204.9,177.8 L 201,173.9 L 197.1,169.8 L 193.1,165.7 L 189.2,161.5 L 185.2,157.2 L 181.2,152.8 L 177.2,148.3 L 173.2,143.8 L 169.1,139.2 L 165,134.5 L 161,129.7 L 156.8,124.9 L 152.7,120 L 148.5,115 L 144.3,110.1 L 140.1,105 L 135.8,100 L 131.4,94.9 L 127,89.8 L 122.6,84.7 L 118,79.6 L 113.5,74.5 L 108.8,69.4 L 104.1,64.3" fill="none" stroke="#e8a215" stroke-width="8" stroke-linecap="round" opacity="1"/>
  <path d="M 265.2,226.8 L 262.6,223.9 L 259.9,220.9 L 257,217.8 L 254.1,214.7 L 251.1,211.4 L 248,208.1 L 244.8,204.7 L 241.5,201.3 L 238.2,197.7 L 234.7,194.1 L 231.3,190.4 L 227.7,186.6 L 224.1,182.8 L 220.4,178.9 L 216.7,174.9 L 212.9,170.8 L 209.1,166.7 L 205.2,162.5 L 201.2,158.3 L 197.2,154 L 193.1,149.6 L 189,145.2 L 184.9,140.8 L 180.7,136.3 L 176.4,131.8 L 172.1,127.2 L 167.8,122.6 L 163.4,117.9 L 158.9,113.3 L 154.4,108.6 L 149.8,103.9 L 145.2,99.1 L 140.5,94.4 L 135.8,89.7 L 131,85 L 126.1,80.3 L 121.2,75.6 L 116.2,70.9 L 111.2,66.3 L 106,61.6" fill="none" stroke="#d47020" stroke-width="8" stroke-linecap="round" opacity="1"/>
  <path d="M 268,225 L 265.8,221.7 L 263.6,218.4 L 261.2,214.9 L 258.7,211.4 L 256.1,207.8 L 253.4,204.1 L 250.6,200.3 L 247.7,196.5 L 244.7,192.6 L 241.6,188.7 L 238.4,184.6 L 235.1,180.6 L 231.7,176.5 L 228.2,172.3 L 224.6,168.1 L 220.9,163.8 L 217.1,159.5 L 213.3,155.2 L 209.3,150.9 L 205.3,146.5 L 201.1,142.1 L 196.9,137.7 L 192.6,133.3 L 188.2,128.8 L 183.8,124.4 L 179.2,119.9 L 174.6,115.4 L 169.9,111 L 165.1,106.5 L 160.3,102.1 L 155.4,97.7 L 150.4,93.3 L 145.3,88.9 L 140.2,84.5 L 135,80.2 L 129.7,75.9 L 124.4,71.6 L 119,67.3 L 113.5,63.1 L 108,59" fill="none" stroke="#c43c1e" stroke-width="8" stroke-linecap="round" opacity="1"/>
  <path d="M 270.8,223.2 L 269.1,219.6 L 267.3,215.8 L 265.4,212 L 263.3,208.1 L 261.2,204.1 L 258.9,200.1 L 256.5,195.9 L 253.9,191.7 L 251.2,187.5 L 248.4,183.2 L 245.5,178.9 L 242.4,174.5 L 239.3,170.1 L 235.9,165.7 L 232.5,161.3 L 228.9,156.8 L 225.2,152.4 L 221.3,147.9 L 217.4,143.5 L 213.3,139 L 209.1,134.6 L 204.8,130.1 L 200.3,125.7 L 195.8,121.3 L 191.1,117 L 186.3,112.6 L 181.4,108.3 L 176.4,104 L 171.3,99.8 L 166.2,95.6 L 160.9,91.5 L 155.5,87.4 L 150.1,83.3 L 144.6,79.3 L 139,75.3 L 133.3,71.4 L 127.5,67.6 L 121.7,63.8 L 115.9,60 L 110,56.4" fill="none" stroke="#a01818" stroke-width="8" stroke-linecap="round" opacity="1"/>
  <path d="M 273.5,221.4 L 272.3,217.4 L 271,213.3 L 269.6,209.1 L 268,204.8 L 266.2,200.4 L 264.4,196 L 262.3,191.5 L 260.1,187 L 257.8,182.4 L 255.3,177.8 L 252.6,173.2 L 249.8,168.5 L 246.8,163.8 L 243.7,159.2 L 240.4,154.5 L 236.9,149.8 L 233.2,145.2 L 229.4,140.6 L 225.5,136 L 221.3,131.5 L 217.1,127 L 212.6,122.6 L 208,118.2 L 203.3,113.8 L 198.4,109.6 L 193.4,105.3 L 188.2,101.2 L 183,97.1 L 177.6,93.1 L 172,89.1 L 166.4,85.3 L 160.7,81.5 L 154.8,77.8 L 148.9,74.1 L 142.9,70.5 L 136.9,67 L 130.7,63.6 L 124.5,60.2 L 118.2,56.9 L 111.9,53.7" fill="none" stroke="#551010" stroke-width="8" stroke-linecap="round" opacity="1"/>
  <path d="M 276.3,219.6 L 275.6,215.2 L 274.7,210.8 L 273.7,206.2 L 272.6,201.5 L 271.3,196.8 L 269.8,192 L 268.2,187.1 L 266.3,182.2 L 264.3,177.3 L 262.1,172.4 L 259.8,167.4 L 257.2,162.5 L 254.4,157.5 L 251.4,152.6 L 248.3,147.7 L 244.9,142.9 L 241.3,138.1 L 237.5,133.3 L 233.6,128.6 L 229.4,124 L 225,119.5 L 220.5,115 L 215.7,110.6 L 210.8,106.3 L 205.7,102.1 L 200.5,98.1 L 195.1,94.1 L 189.5,90.2 L 183.8,86.4 L 177.9,82.7 L 171.9,79.1 L 165.8,75.6 L 159.6,72.2 L 153.3,68.9 L 146.9,65.7 L 140.4,62.6 L 133.9,59.6 L 127.3,56.7 L 120.6,53.8 L 113.9,51.1" fill="none" stroke="#1a1a1a" stroke-width="8" stroke-linecap="round" opacity="1"/>
  <path d="M 119.9,425.1 L 127.4,423.2 L 134.9,421.3 L 142.3,419.5 L 149.8,417.7 L 157.3,415.9 L 164.8,414.2 L 172.3,412.5 L 179.8,410.9 L 187.3,409.4 L 194.7,408 L 202.2,406.7 L 209.7,405.5 L 217.2,404.4 L 224.7,403.5 L 232.2,402.6 L 239.7,401.9 L 247.2,401.4 L 254.7,400.9 L 262.2,400.6 L 269.7,400.5 L 277.2,400.5 L 284.7,400.6 L 292.2,400.9 L 299.7,401.3 L 307.2,401.9 L 314.7,402.6 L 322.2,403.4 L 329.7,404.3 L 337.2,405.4 L 344.7,406.5 L 352.3,407.8 L 359.8,409.1 L 367.3,410.6 L 374.8,412.1 L 382.3,413.6 L 389.8,415.3 L 397.3,416.9 L 404.9,418.6 L 412.4,420.4 L 419.9,422.1" fill="none" stroke="#f5d020" stroke-width="8" stroke-linecap="round" opacity="1"/>
  <path d="M 119.9,428.4 L 127.4,427.1 L 134.9,425.8 L 142.4,424.6 L 149.9,423.3 L 157.4,422.1 L 164.9,421 L 172.4,419.8 L 179.8,418.7 L 187.3,417.7 L 194.8,416.8 L 202.3,415.9 L 209.8,415 L 217.3,414.3 L 224.8,413.6 L 232.3,413 L 239.8,412.6 L 247.3,412.2 L 254.8,411.8 L 262.3,411.6 L 269.8,411.5 L 277.3,411.5 L 284.8,411.5 L 292.3,411.7 L 299.8,412 L 307.3,412.3 L 314.8,412.7 L 322.3,413.2 L 329.8,413.8 L 337.3,414.5 L 344.8,415.3 L 352.3,416.1 L 359.8,416.9 L 367.4,417.9 L 374.9,418.9 L 382.4,419.9 L 389.9,420.9 L 397.4,422 L 404.9,423.1 L 412.4,424.3 L 419.9,425.4" fill="none" stroke="#e8a215" stroke-width="8" stroke-linecap="round" opacity="1"/>
  <path d="M 120,431.7 L 127.5,431 L 135,430.3 L 142.4,429.7 L 149.9,429 L 157.4,428.4 L 164.9,427.8 L 172.4,427.2 L 179.9,426.6 L 187.4,426 L 194.9,425.5 L 202.4,425 L 209.9,424.6 L 217.4,424.2 L 224.9,423.8 L 232.4,423.5 L 239.9,423.2 L 247.4,422.9 L 254.9,422.7 L 262.4,422.6 L 269.9,422.5 L 277.4,422.4 L 284.9,422.4 L 292.4,422.5 L 299.9,422.6 L 307.4,422.7 L 314.9,422.9 L 322.4,423.1 L 329.9,423.4 L 337.4,423.7 L 344.9,424 L 352.4,424.4 L 359.9,424.8 L 367.4,425.2 L 374.9,425.7 L 382.4,426.1 L 389.9,426.6 L 397.4,427.1 L 405,427.6 L 412.5,428.2 L 420,428.7" fill="none" stroke="#d47020" stroke-width="8" stroke-linecap="round" opacity="1"/>
  <path d="M 120,435 L 127.5,434.9 L 135,434.8 L 142.5,434.8 L 150,434.7 L 157.5,434.6 L 165,434.6 L 172.5,434.5 L 180,434.4 L 187.5,434.3 L 195,434.3 L 202.5,434.2 L 210,434.1 L 217.5,434 L 225,434 L 232.5,433.9 L 240,433.8 L 247.5,433.7 L 255,433.7 L 262.5,433.6 L 270,433.5 L 277.5,433.4 L 285,433.4 L 292.5,433.3 L 300,433.2 L 307.5,433.1 L 315,433.1 L 322.5,433 L 330,432.9 L 337.5,432.8 L 345,432.8 L 352.5,432.7 L 360,432.6 L 367.5,432.5 L 375,432.4 L 382.5,432.4 L 390,432.3 L 397.5,432.2 L 405,432.2 L 412.5,432.1 L 420,432" fill="none" stroke="#c43c1e" stroke-width="8" stroke-linecap="round" opacity="1"/>
  <path d="M 120,438.3 L 127.5,438.8 L 135,439.4 L 142.6,439.9 L 150.1,440.4 L 157.6,440.9 L 165.1,441.3 L 172.6,441.8 L 180.1,442.2 L 187.6,442.6 L 195.1,443 L 202.6,443.3 L 210.1,443.6 L 217.6,443.9 L 225.1,444.1 L 232.6,444.3 L 240.1,444.4 L 247.6,444.5 L 255.1,444.6 L 262.6,444.6 L 270.1,444.5 L 277.6,444.4 L 285.1,444.3 L 292.6,444.1 L 300.1,443.8 L 307.6,443.5 L 315.1,443.2 L 322.6,442.8 L 330.1,442.4 L 337.6,442 L 345.1,441.5 L 352.6,441 L 360.1,440.4 L 367.6,439.8 L 375.1,439.2 L 382.6,438.6 L 390.1,438 L 397.6,437.3 L 405,436.7 L 412.5,436 L 420,435.3" fill="none" stroke="#a01818" stroke-width="8" stroke-linecap="round" opacity="1"/>
  <path d="M 120.1,441.6 L 127.6,442.7 L 135.1,443.9 L 142.6,445 L 150.1,446.1 L 157.6,447.1 L 165.1,448.1 L 172.6,449.1 L 180.2,450.1 L 187.7,450.9 L 195.2,451.7 L 202.7,452.5 L 210.2,453.2 L 217.7,453.8 L 225.2,454.3 L 232.7,454.7 L 240.2,455 L 247.7,455.3 L 255.2,455.5 L 262.7,455.5 L 270.2,455.5 L 277.7,455.4 L 285.2,455.2 L 292.7,454.8 L 300.2,454.4 L 307.7,454 L 315.2,453.4 L 322.7,452.7 L 330.2,452 L 337.7,451.1 L 345.2,450.2 L 352.7,449.3 L 360.2,448.3 L 367.6,447.2 L 375.1,446 L 382.6,444.9 L 390.1,443.7 L 397.6,442.4 L 405.1,441.2 L 412.6,439.9 L 420.1,438.6" fill="none" stroke="#551010" stroke-width="8" stroke-linecap="round" opacity="1"/>
  <path d="M 120.1,444.9 L 127.6,446.6 L 135.1,448.4 L 142.7,450.1 L 150.2,451.7 L 157.7,453.4 L 165.2,454.9 L 172.7,456.4 L 180.2,457.9 L 187.7,459.2 L 195.3,460.5 L 202.8,461.6 L 210.3,462.7 L 217.8,463.6 L 225.3,464.4 L 232.8,465.1 L 240.3,465.7 L 247.8,466.1 L 255.3,466.4 L 262.8,466.5 L 270.3,466.5 L 277.8,466.4 L 285.3,466.1 L 292.8,465.6 L 300.3,465.1 L 307.8,464.4 L 315.3,463.5 L 322.8,462.6 L 330.3,461.5 L 337.8,460.3 L 345.3,459 L 352.7,457.6 L 360.2,456.1 L 367.7,454.5 L 375.2,452.8 L 382.7,451.1 L 390.2,449.3 L 397.7,447.5 L 405.1,445.7 L 412.6,443.8 L 420.1,441.9" fill="none" stroke="#1a1a1a" stroke-width="8" stroke-linecap="round" opacity="1"/>
</svg>
