<?xml version="1.0" encoding="UTF-8" standalone="no"?>
<!DOCTYPE svg PUBLIC "-//W3C//DTD SVG 1.1//EN"
 "http://www.w3.org/Graphics/SVG/1.1/DTD/svg11.dtd">
<!-- Generated by graphviz version 12.2.1 (20241206.2353)
 -->
<!-- Title: pipeline Pages: 1 -->
<svg width="388pt" height="773pt"
 viewBox="0.00 0.00 387.50 772.50" xmlns="http://www.w3.org/2000/svg" xmlns:xlink="http://www.w3.org/1999/xlink">
<g id="graph0" class="graph" transform="scale(1 1) rotate(0) translate(4 768.5)">
<title>pipeline</title>
<g id="clust1" class="cluster">
<title>cluster_macro</title>
<polygon fill="none" stroke="#cccccc" stroke-dasharray="5,2" points="125,-463 125,-756.5 211,-756.5 211,-463 125,-463"/>
<text text-anchor="start" x="133" y="-744.95" font-family="Helvetica,sans-Serif" font-size="9.00" fill="#888888">macro expansion</text>
<text text-anchor="start" x="147.62" y="-736.9" font-family="Helvetica,sans-Serif" font-size="8.00" fill="#888888">eval_syntax</text>
</g>
<!-- source -->
<g id="node1" class="node">
<title>source</title>
<polygon fill="#e8f0fe" stroke="#333333" stroke-width="1.2" points="77,-585.5 29,-585.5 29,-549.5 83,-549.5 83,-579.5 77,-585.5"/>
<polyline fill="none" stroke="#333333" stroke-width="1.2" points="77,-585.5 77,-579.5"/>
<polyline fill="none" stroke="#333333" stroke-width="1.2" points="83,-579.5 77,-579.5"/>
<text text-anchor="middle" x="56" y="-563.8" font-family="Helvetica,sans-Serif" font-size="11.00">Source</text>
</g>
<!-- reader -->
<g id="node2" class="node">
<title>reader</title>
<path fill="#fef7e0" stroke="#333333" stroke-width="1.2" d="M100,-507C100,-507 12,-507 12,-507 6,-507 0,-501 0,-495 0,-495 0,-483 0,-483 0,-477 6,-471 12,-471 12,-471 100,-471 100,-471 106,-471 112,-477 112,-483 112,-483 112,-495 112,-495 112,-501 106,-507 100,-507"/>
<text text-anchor="start" x="38" y="-489.55" font-family="Helvetica,sans-Serif" font-size="11.00">Reader</text>
<text text-anchor="start" x="8" y="-480.45" font-family="Helvetica,sans-Serif" font-size="9.00" fill="#666666">lexing, source locations</text>
</g>
<!-- source&#45;&gt;reader -->
<g id="edge1" class="edge">
<title>source&#45;&gt;reader</title>
<path fill="none" stroke="#666666" d="M56,-549.14C56,-540.14 56,-528.92 56,-518.67"/>
<polygon fill="#666666" stroke="#666666" points="59.5,-518.8 56,-508.8 52.5,-518.8 59.5,-518.8"/>
<text text-anchor="middle" x="63.13" y="-524.95" font-family="Helvetica,sans-Serif" font-size="9.00" fill="#444444">text</text>
</g>
<!-- expand -->
<g id="node3" class="node">
<title>expand</title>
<path fill="#fef7e0" stroke="#333333" stroke-width="1.2" d="M219.25,-428.5C219.25,-428.5 108.75,-428.5 108.75,-428.5 102.75,-428.5 96.75,-422.5 96.75,-416.5 96.75,-416.5 96.75,-404.5 96.75,-404.5 96.75,-398.5 102.75,-392.5 108.75,-392.5 108.75,-392.5 219.25,-392.5 219.25,-392.5 225.25,-392.5 231.25,-398.5 231.25,-404.5 231.25,-404.5 231.25,-416.5 231.25,-416.5 231.25,-422.5 225.25,-428.5 219.25,-428.5"/>
<text text-anchor="start" x="140.75" y="-411.05" font-family="Helvetica,sans-Serif" font-size="11.00">Expander</text>
<text text-anchor="start" x="104.75" y="-401.95" font-family="Helvetica,sans-Serif" font-size="9.00" fill="#666666">macro expansion, scope sets</text>
</g>
<!-- reader&#45;&gt;expand -->
<g id="edge2" class="edge">
<title>reader&#45;&gt;expand</title>
<path fill="none" stroke="#666666" d="M80.51,-470.64C95.28,-460.18 114.31,-446.7 130.46,-435.26"/>
<polygon fill="#666666" stroke="#666666" points="132.22,-438.3 138.36,-429.67 128.17,-432.59 132.22,-438.3"/>
<text text-anchor="middle" x="130.34" y="-446.45" font-family="Helvetica,sans-Serif" font-size="9.00" fill="#444444">Syntax</text>
</g>
<!-- analyze -->
<g id="node4" class="node">
<title>analyze</title>
<path fill="#fef7e0" stroke="#333333" stroke-width="1.2" d="M236.5,-350C236.5,-350 91.5,-350 91.5,-350 85.5,-350 79.5,-344 79.5,-338 79.5,-338 79.5,-326 79.5,-326 79.5,-320 85.5,-314 91.5,-314 91.5,-314 236.5,-314 236.5,-314 242.5,-314 248.5,-320 248.5,-326 248.5,-326 248.5,-338 248.5,-338 248.5,-344 242.5,-350 236.5,-350"/>
<text text-anchor="start" x="143" y="-332.55" font-family="Helvetica,sans-Serif" font-size="11.00">Analyzer</text>
<text text-anchor="start" x="87.5" y="-323.45" font-family="Helvetica,sans-Serif" font-size="9.00" fill="#666666">bindings, signals, captures, mutations</text>
</g>
<!-- expand&#45;&gt;analyze -->
<g id="edge3" class="edge">
<title>expand&#45;&gt;analyze</title>
<path fill="none" stroke="#666666" d="M164,-392.14C164,-383.14 164,-371.92 164,-361.67"/>
<polygon fill="#666666" stroke="#666666" points="167.5,-361.8 164,-351.8 160.5,-361.8 167.5,-361.8"/>
<text text-anchor="middle" x="177.88" y="-367.95" font-family="Helvetica,sans-Serif" font-size="9.00" fill="#444444">Syntax</text>
</g>
<!-- m_analyze -->
<g id="node8" class="node">
<title>m_analyze</title>
<path fill="#fef7e0" stroke="#333333" stroke-width="1.2" d="M183.12,-723.5C183.12,-723.5 152.88,-723.5 152.88,-723.5 146.88,-723.5 140.88,-717.5 140.88,-711.5 140.88,-711.5 140.88,-699.5 140.88,-699.5 140.88,-693.5 146.88,-687.5 152.88,-687.5 152.88,-687.5 183.12,-687.5 183.12,-687.5 189.12,-687.5 195.12,-693.5 195.12,-699.5 195.12,-699.5 195.12,-711.5 195.12,-711.5 195.12,-717.5 189.12,-723.5 183.12,-723.5"/>
<text text-anchor="start" x="148.88" y="-702" font-family="Helvetica,sans-Serif" font-size="10.00">Analyzer</text>
</g>
<!-- expand&#45;&gt;m_analyze -->
<g id="edge11" class="edge">
<title>expand&#45;&gt;m_analyze</title>
<path fill="none" stroke="#8855aa" stroke-dasharray="5,2" d="M191.19,-428.78C209,-442.42 229,-463.25 229,-488 229,-637.5 229,-637.5 229,-637.5 229,-655.18 217.24,-670.25 204.05,-681.59"/>
<polygon fill="#8855aa" stroke="#8855aa" points="202.17,-678.62 196.48,-687.56 206.5,-684.12 202.17,-678.62"/>
</g>
<!-- analyze&#45;&gt;analyze -->
<g id="edge7" class="edge">
<title>analyze&#45;&gt;analyze</title>
<path fill="none" stroke="#cc6600" stroke-dasharray="5,2" d="M248.94,-338.87C263.45,-337.93 273.5,-335.64 273.5,-332 273.5,-329.41 268.42,-327.51 260.27,-326.28"/>
<polygon fill="#cc6600" stroke="#cc6600" points="260.75,-322.81 250.44,-325.28 260.04,-329.78 260.75,-322.81"/>
<text text-anchor="start" x="273.88" y="-332.95" font-family="Helvetica,sans-Serif" font-size="9.00" fill="#cc6600">fixpoint</text>
<text text-anchor="start" x="273.5" y="-324.9" font-family="Helvetica,sans-Serif" font-size="8.00" fill="#cc6600">(signals)</text>
</g>
<!-- lower -->
<g id="node5" class="node">
<title>lower</title>
<path fill="#fef7e0" stroke="#333333" stroke-width="1.2" d="M232.75,-271.5C232.75,-271.5 95.25,-271.5 95.25,-271.5 89.25,-271.5 83.25,-265.5 83.25,-259.5 83.25,-259.5 83.25,-247.5 83.25,-247.5 83.25,-241.5 89.25,-235.5 95.25,-235.5 95.25,-235.5 232.75,-235.5 232.75,-235.5 238.75,-235.5 244.75,-241.5 244.75,-247.5 244.75,-247.5 244.75,-259.5 244.75,-259.5 244.75,-265.5 238.75,-271.5 232.75,-271.5"/>
<text text-anchor="start" x="144.12" y="-254.05" font-family="Helvetica,sans-Serif" font-size="11.00">Lowerer</text>
<text text-anchor="start" x="91.25" y="-244.95" font-family="Helvetica,sans-Serif" font-size="9.00" fill="#666666">escape analysis, region instructions</text>
</g>
<!-- analyze&#45;&gt;lower -->
<g id="edge4" class="edge">
<title>analyze&#45;&gt;lower</title>
<path fill="none" stroke="#666666" d="M164,-313.64C164,-304.64 164,-293.42 164,-283.17"/>
<polygon fill="#666666" stroke="#666666" points="167.5,-283.3 164,-273.3 160.5,-283.3 167.5,-283.3"/>
<text text-anchor="middle" x="171.88" y="-289.45" font-family="Helvetica,sans-Serif" font-size="9.00" fill="#444444">HIR</text>
</g>
<!-- emit -->
<g id="node6" class="node">
<title>emit</title>
<path fill="#fef7e0" stroke="#333333" stroke-width="1.2" d="M227.5,-193C227.5,-193 100.5,-193 100.5,-193 94.5,-193 88.5,-187 88.5,-181 88.5,-181 88.5,-169 88.5,-169 88.5,-163 94.5,-157 100.5,-157 100.5,-157 227.5,-157 227.5,-157 233.5,-157 239.5,-163 239.5,-169 239.5,-169 239.5,-181 239.5,-181 239.5,-187 233.5,-193 227.5,-193"/>
<text text-anchor="start" x="146.75" y="-175.55" font-family="Helvetica,sans-Serif" font-size="11.00">Emitter</text>
<text text-anchor="start" x="96.5" y="-166.45" font-family="Helvetica,sans-Serif" font-size="9.00" fill="#666666">register allocation, jump patching</text>
</g>
<!-- lower&#45;&gt;emit -->
<g id="edge5" class="edge">
<title>lower&#45;&gt;emit</title>
<path fill="none" stroke="#666666" d="M164,-235.14C164,-226.14 164,-214.92 164,-204.67"/>
<polygon fill="#666666" stroke="#666666" points="167.5,-204.8 164,-194.8 160.5,-204.8 167.5,-204.8"/>
<text text-anchor="middle" x="171.12" y="-210.95" font-family="Helvetica,sans-Serif" font-size="9.00" fill="#444444">LIR</text>
</g>
<!-- vm -->
<g id="node7" class="node">
<title>vm</title>
<path fill="#e0f0e8" stroke="#333333" stroke-width="1.2" d="M279.88,-114.5C279.88,-114.5 206.12,-114.5 206.12,-114.5 200.12,-114.5 194.12,-108.5 194.12,-102.5 194.12,-102.5 194.12,-90.5 194.12,-90.5 194.12,-84.5 200.12,-78.5 206.12,-78.5 206.12,-78.5 279.88,-78.5 279.88,-78.5 285.88,-78.5 291.88,-84.5 291.88,-90.5 291.88,-90.5 291.88,-102.5 291.88,-102.5 291.88,-108.5 285.88,-114.5 279.88,-114.5"/>
<text text-anchor="start" x="234.75" y="-97.05" font-family="Helvetica,sans-Serif" font-size="11.00">VM</text>
<text text-anchor="start" x="202.12" y="-87.95" font-family="Helvetica,sans-Serif" font-size="9.00" fill="#666666">bytecode interpreter</text>
</g>
<!-- emit&#45;&gt;vm -->
<g id="edge6" class="edge">
<title>emit&#45;&gt;vm</title>
<path fill="none" stroke="#666666" d="M181.93,-156.64C192.33,-146.57 205.61,-133.7 217.13,-122.55"/>
<polygon fill="#666666" stroke="#666666" points="219.31,-125.31 224.06,-115.84 214.44,-120.29 219.31,-125.31"/>
<text text-anchor="middle" x="227.35" y="-132.45" font-family="Helvetica,sans-Serif" font-size="9.00" fill="#444444">Bytecode</text>
</g>
<!-- jit -->
<g id="node12" class="node">
<title>jit</title>
<path fill="#fde8e8" stroke="#333333" stroke-width="1.2" d="M299,-36C299,-36 187,-36 187,-36 181,-36 175,-30 175,-24 175,-24 175,-12 175,-12 175,-6 181,0 187,0 187,0 299,0 299,0 305,0 311,-6 311,-12 311,-12 311,-24 311,-24 311,-30 305,-36 299,-36"/>
<text text-anchor="start" x="235.5" y="-18.55" font-family="Helvetica,sans-Serif" font-size="11.00">JIT</text>
<text text-anchor="start" x="183" y="-9.45" font-family="Helvetica,sans-Serif" font-size="9.00" fill="#666666">Cranelift, non&#45;suspending fns</text>
</g>
<!-- vm&#45;&gt;jit -->
<g id="edge13" class="edge">
<title>vm&#45;&gt;jit</title>
<path fill="none" stroke="#cc3333" stroke-dasharray="5,2" d="M207.84,-78.21C202.27,-73.87 197.28,-68.66 194,-62.5 190.37,-55.69 192.11,-49.43 196.63,-43.91"/>
<polygon fill="#cc3333" stroke="#cc3333" points="198.75,-46.71 203.81,-37.39 194.05,-41.52 198.75,-46.71"/>
<text text-anchor="middle" x="227" y="-53.95" font-family="Helvetica,sans-Serif" font-size="9.00" fill="#cc3333">!may_suspend()</text>
</g>
<!-- m_lower -->
<g id="node9" class="node">
<title>m_lower</title>
<path fill="#fef7e0" stroke="#333333" stroke-width="1.2" d="M179,-654.5C179,-654.5 149,-654.5 149,-654.5 143,-654.5 137,-648.5 137,-642.5 137,-642.5 137,-630.5 137,-630.5 137,-624.5 143,-618.5 149,-618.5 149,-618.5 179,-618.5 179,-618.5 185,-618.5 191,-624.5 191,-630.5 191,-630.5 191,-642.5 191,-642.5 191,-648.5 185,-654.5 179,-654.5"/>
<text text-anchor="start" x="146.75" y="-633" font-family="Helvetica,sans-Serif" font-size="10.00">Lowerer</text>
</g>
<!-- m_analyze&#45;&gt;m_lower -->
<g id="edge8" class="edge">
<title>m_analyze&#45;&gt;m_lower</title>
<path fill="none" stroke="#666666" d="M166.97,-687.25C166.53,-679.96 166.02,-671.31 165.54,-663.29"/>
<polygon fill="#666666" stroke="#666666" points="167.99,-663.28 165.13,-656.44 163.1,-663.57 167.99,-663.28"/>
</g>
<!-- m_emit -->
<g id="node10" class="node">
<title>m_emit</title>
<path fill="#fef7e0" stroke="#333333" stroke-width="1.2" d="M179,-585.5C179,-585.5 149,-585.5 149,-585.5 143,-585.5 137,-579.5 137,-573.5 137,-573.5 137,-561.5 137,-561.5 137,-555.5 143,-549.5 149,-549.5 149,-549.5 179,-549.5 179,-549.5 185,-549.5 191,-555.5 191,-561.5 191,-561.5 191,-573.5 191,-573.5 191,-579.5 185,-585.5 179,-585.5"/>
<text text-anchor="start" x="148.25" y="-564" font-family="Helvetica,sans-Serif" font-size="10.00">Emitter</text>
</g>
<!-- m_lower&#45;&gt;m_emit -->
<g id="edge9" class="edge">
<title>m_lower&#45;&gt;m_emit</title>
<path fill="none" stroke="#666666" d="M164,-618.25C164,-610.96 164,-602.31 164,-594.29"/>
<polygon fill="#666666" stroke="#666666" points="166.45,-594.44 164,-587.44 161.55,-594.44 166.45,-594.44"/>
</g>
<!-- m_vm -->
<g id="node11" class="node">
<title>m_vm</title>
<path fill="#e0f0e8" stroke="#333333" stroke-width="1.2" d="M179,-507C179,-507 149,-507 149,-507 143,-507 137,-501 137,-495 137,-495 137,-483 137,-483 137,-477 143,-471 149,-471 149,-471 179,-471 179,-471 185,-471 191,-477 191,-483 191,-483 191,-495 191,-495 191,-501 185,-507 179,-507"/>
<text text-anchor="start" x="156.5" y="-485.5" font-family="Helvetica,sans-Serif" font-size="10.00">VM</text>
</g>
<!-- m_emit&#45;&gt;m_vm -->
<g id="edge10" class="edge">
<title>m_emit&#45;&gt;m_vm</title>
<path fill="none" stroke="#666666" d="M164,-549.14C164,-539.26 164,-526.7 164,-515.7"/>
<polygon fill="#666666" stroke="#666666" points="166.45,-515.8 164,-508.8 161.55,-515.8 166.45,-515.8"/>
</g>
<!-- m_vm&#45;&gt;expand -->
<g id="edge12" class="edge">
<title>m_vm&#45;&gt;expand</title>
<path fill="none" stroke="#8855aa" stroke-dasharray="5,2" d="M164,-470.64C164,-461.64 164,-450.42 164,-440.17"/>
<polygon fill="#8855aa" stroke="#8855aa" points="167.5,-440.3 164,-430.3 160.5,-440.3 167.5,-440.3"/>
<text text-anchor="middle" x="175.62" y="-446.45" font-family="Helvetica,sans-Serif" font-size="9.00" fill="#8855aa">Value</text>
</g>
<!-- jit&#45;&gt;vm -->
<g id="edge14" class="edge">
<title>jit&#45;&gt;vm</title>
<path fill="none" stroke="#cc3333" stroke-dasharray="5,2" d="M256.53,-36.34C261.04,-44.14 264.38,-53.58 262,-62.5 261.51,-64.34 260.88,-66.19 260.17,-68.02"/>
<polygon fill="#cc3333" stroke="#cc3333" points="257.15,-66.21 255.93,-76.73 263.45,-69.27 257.15,-66.21"/>
<text text-anchor="middle" x="280.04" y="-53.95" font-family="Helvetica,sans-Serif" font-size="9.00" fill="#cc3333">native fn</text>
</g>
<!-- plugin -->
<g id="node13" class="node">
<title>plugin</title>
<path fill="#e8e0f0" stroke="#333333" stroke-width="1.2" d="M367.5,-193C367.5,-193 276.5,-193 276.5,-193 270.5,-193 264.5,-187 264.5,-181 264.5,-181 264.5,-169 264.5,-169 264.5,-163 270.5,-157 276.5,-157 276.5,-157 367.5,-157 367.5,-157 373.5,-157 379.5,-163 379.5,-169 379.5,-169 379.5,-181 379.5,-181 379.5,-187 373.5,-193 367.5,-193"/>
<text text-anchor="start" x="294.62" y="-175.55" font-family="Helvetica,sans-Serif" font-size="11.00">Plugin (.so)</text>
<text text-anchor="start" x="272.5" y="-166.45" font-family="Helvetica,sans-Serif" font-size="9.00" fill="#666666">Rust cdylib, PrimitiveDef</text>
</g>
<!-- plugin&#45;&gt;vm -->
<g id="edge15" class="edge">
<title>plugin&#45;&gt;vm</title>
<path fill="none" stroke="#6644aa" stroke-dasharray="5,2" d="M304.07,-156.64C293.67,-146.57 280.39,-133.7 268.87,-122.55"/>
<polygon fill="#6644aa" stroke="#6644aa" points="271.56,-120.29 261.94,-115.84 266.69,-125.31 271.56,-120.29"/>
<text text-anchor="middle" x="307.48" y="-132.45" font-family="Helvetica,sans-Serif" font-size="9.00" fill="#6644aa">import&#45;file</text>
</g>
</g>
</svg>
